<svg width="404" height="69" viewBox="0 0 404 69" fill="none" xmlns="http://www.w3.org/2000/svg">
<g clip-path="url(#clip0_14_25)">
<path d="M53.8249 22.8658H81.937L81.0645 29.03H58.0785L57.1378 35.6107H78.665L77.7379 41.7748H56.1835L55.2155 48.4249H78.2015L77.3289 54.5891H49.2168L53.8249 22.8658Z" fill="#E2E2E2"/>
<path d="M84.8546 22.8658H108.631C112.858 22.8658 115.244 27.364 114.453 33.2783C113.662 39.1925 109.872 43.6213 105.7 43.6213H86.8996L85.359 54.5891H80.3828L84.8546 22.8658ZM106.6 37.4571C107.963 37.4571 109.081 36.0688 109.49 33.2921C109.899 30.5155 109.19 29.0439 107.8 29.0439H88.9855L87.7858 37.4849L106.6 37.4571Z" fill="#E2E2E2"/>
<path d="M118.311 22.7964H144.787C149.327 22.7964 152.081 26.4338 151.222 31.5429C151.056 32.9037 150.627 34.2176 149.96 35.4089C149.293 36.6002 148.402 37.6455 147.337 38.4845C149.341 40.0811 150.063 42.5523 149.6 45.8149C148.741 50.7435 145.06 54.5614 140.411 54.5614H113.444L118.311 22.7964ZM141.324 48.3555C142.783 48.3555 143.915 47.2449 144.296 45.0235C144.678 42.8022 143.806 41.6916 142.347 41.6916H120.792L119.77 48.3417L141.324 48.3555ZM142.838 35.5413C144.296 35.5413 145.319 34.5555 145.701 32.3342C146.082 30.1129 145.319 28.9467 143.86 28.9467H122.783L121.76 35.5413H142.838Z" fill="#E2E2E2"/>
<path d="M155.299 22.8658H160.956L157.48 44.7875C157.085 47.0088 157.821 48.4249 159.457 48.4249H178.694C180.275 48.4249 181.516 47.0366 181.925 44.7875L185.429 22.8658H191.086L187.583 44.7875C186.683 50.0215 182.606 54.5752 177.739 54.5752H158.502C153.526 54.5752 150.922 50.077 151.822 44.7875L155.299 22.8658Z" fill="#E2E2E2"/>
<path d="M303.903 22.8658H330.366C334.906 22.8658 337.66 26.5032 336.801 31.6123C336.635 32.9731 336.206 34.287 335.539 35.4783C334.872 36.6696 333.98 37.7149 332.915 38.5539C334.919 40.1505 335.642 42.6217 335.178 45.8843C334.319 50.8129 330.638 54.6308 325.989 54.6308H299.063L303.903 22.8658ZM326.944 48.4249C328.403 48.4249 329.534 47.3143 329.916 45.0929C330.298 42.8716 329.425 41.761 327.966 41.761H306.412L305.389 48.4111L326.944 48.4249ZM328.443 35.6107C329.902 35.6107 330.925 34.6249 331.307 32.4036C331.688 30.1823 330.925 29.0161 329.466 29.0161H308.416L307.393 35.6107H328.443Z" fill="#E2E2E2"/>
<path d="M352.084 29.03H338.859L339.787 22.8658H371.702L370.775 29.03H357.551L353.556 54.5891H348.103L352.084 29.03Z" fill="#E2E2E2"/>
<path d="M370.83 32.9034C371.661 27.1141 376.283 22.8658 380.987 22.8658H396.611C401.382 22.8658 404.695 27.1141 403.864 32.9034L402.064 44.5376C401.232 50.327 396.611 54.5752 391.907 54.5752H376.324C371.512 54.5752 368.239 50.327 369.071 44.5376L370.83 32.9034ZM392.848 48.4249C393.885 48.4275 394.884 48.029 395.643 47.3099C396.403 46.5908 396.865 45.6048 396.938 44.5515L398.697 32.9173C399.065 30.5155 397.865 29.0439 395.738 29.0439H380.101C379.064 29.0413 378.065 29.4398 377.305 30.1589C376.546 30.878 376.083 31.864 376.011 32.9173L374.252 44.5515C373.884 47.0088 374.974 48.4249 377.21 48.4249H392.848Z" fill="#E2E2E2"/>
<path d="M71.4665 0.555342L69.9805 6.8306C69.9805 6.8306 47.6216 6.35856 39.8506 6.8306C31.2615 7.33039 24.6084 9.38512 19.6322 34.7777C13.8516 64.2519 30.2526 62.6415 30.2526 62.6415H219.144L217.781 68.6946H15.3785C12.7165 68.583 10.1195 67.8241 7.80453 66.4811C5.48958 65.1382 3.52404 63.2504 2.07229 60.9755C-1.88141 54.4781 0.818009 37.9431 2.07229 30.4322C2.90393 25.462 5.98508 15.6881 8.58907 11.3982C11.1931 7.10826 15.883 1.40222 22.2225 0.902425C29.1074 0.236026 71.5074 0.749709 71.4665 0.555342Z" fill="#E2E2E2"/>
<path d="M227.201 31.168H221.325C221.325 30.8487 221.325 30.571 221.325 30.3072C221.325 29.1549 220.807 28.669 219.662 28.669H201.039C200.332 28.6103 199.631 28.8341 199.084 29.2928C198.537 29.7515 198.187 30.4091 198.108 31.1263C197.099 36.0549 196.744 41.1917 195.722 46.1203C195.367 47.8557 195.831 48.4527 197.562 48.4527C203.643 48.4527 209.71 48.4527 215.79 48.4527C216.441 48.5412 217.101 48.3878 217.65 48.0206C218.198 47.6533 218.598 47.0969 218.776 46.4535C218.858 46.2314 219.09 45.9259 219.267 45.9121C221.08 45.9121 222.907 45.9121 224.816 45.9121C224.352 48.3833 224.148 50.7851 222.28 52.5344C221.029 53.7902 219.346 54.4978 217.59 54.5058H193.786C190.377 54.5058 188.551 52.1457 189.26 48.6748C190.623 41.9275 191.386 34.9859 192.777 28.2247C192.997 27.1224 193.472 26.0893 194.162 25.2106C194.852 24.3319 195.737 23.6329 196.744 23.1712C197.548 22.8101 198.416 22.6211 199.294 22.6159C207.338 22.6159 215.381 22.6159 223.425 22.6159C224.071 22.5861 224.715 22.7052 225.309 22.9643C225.904 23.2234 226.433 23.6159 226.858 24.1124C227.282 24.6089 227.592 25.1966 227.762 25.8318C227.932 26.4669 227.96 27.133 227.842 27.7805C227.733 28.905 227.433 29.9879 227.201 31.168Z" fill="#E2E2E2"/>
<path d="M293.256 62.9469L301.613 0.472032C220.058 -6.70563 224.584 68.9028 224.584 68.9028H243.916C243.983 62.4922 244.663 56.1034 245.947 49.8272H277.945L279.595 43.4825L247.352 43.9406C258.599 2.29074 295.069 6.60845 295.069 6.60845L286.534 68.9861H398.656L400.278 62.933L293.256 62.9469Z" fill="#E2E2E2"/>
<path d="M86.8178 3.34585H83.5867L81.6098 12.8698H78.9513L80.9282 3.34585H77.6561L78.106 1.20782H87.2677L86.8178 3.34585Z" fill="#E2E2E2"/>
<path d="M105.618 3.34583H101.61L101.065 5.96977H104.855L104.405 8.12168H100.697L100.138 10.7456H104.405L103.955 12.8837H97.1383L99.5787 1.22168H106.177L105.618 3.34583Z" fill="#E2E2E2"/>
<path d="M123.355 7.17762L125.619 12.9392H122.701L121.556 9.23235C121.55 9.16306 121.55 9.09339 121.556 9.0241C121.556 8.9408 121.556 8.8575 121.556 8.7742V8.5243C121.556 8.45026 121.556 8.38547 121.556 8.32994L121.392 8.71867C121.329 8.88096 121.247 9.0348 121.147 9.17681L118.42 12.9253H115.23L120.138 6.91384L117.929 1.26333H120.942L121.951 4.84523C121.951 4.84523 121.951 4.98406 121.951 5.06736C121.951 5.15066 121.951 5.23396 121.951 5.31726C121.951 5.40056 121.951 5.48386 121.951 5.56716C121.951 5.65046 121.951 5.70599 121.951 5.74764V5.58104L122.047 5.35891L122.156 5.12289L122.292 4.90076L125.019 1.24945H128.032L123.355 7.17762Z" fill="#E2E2E2"/>
<path d="M148.127 10.5929H149.845L148.714 16.0768H146.301L146.969 12.8837H137.657L140.097 1.22168H142.688L140.724 10.6068H145.51L147.473 1.22168H150.063L148.127 10.5929Z" fill="#E2E2E2"/>
<path d="M170.2 3.34583H166.205L165.66 5.96977H169.396L168.932 8.12168H165.224L164.665 10.7456H168.932L168.482 12.8837H161.665L164.106 1.22168H170.704L170.2 3.34583Z" fill="#E2E2E2"/>
<path d="M190.827 12.8837H188.237L189.205 8.16333H184.501L183.52 12.8837H180.916L183.356 1.22168H185.96L184.979 5.87259H189.696L190.677 1.22168H193.268L190.827 12.8837Z" fill="#E2E2E2"/>
<path d="M214.072 3.34585H210.841L208.864 12.8698H206.274L208.251 3.34585H204.979L205.429 1.20782H214.522L214.072 3.34585Z" fill="#E2E2E2"/>
<path d="M234.373 4.52591C234.374 5.09076 234.272 5.65094 234.073 6.17802C233.877 6.70625 233.565 7.18138 233.159 7.56635C232.725 7.99898 232.211 8.33885 231.646 8.56595C230.908 8.81382 230.133 8.93121 229.356 8.91303H227.747L226.915 12.9253H224.284L226.724 1.26334H230.651C231.224 1.24843 231.796 1.33293 232.341 1.51324C232.776 1.65794 233.175 1.89449 233.514 2.2074C233.818 2.50112 234.051 2.86217 234.195 3.26253C234.326 3.67006 234.386 4.09752 234.373 4.52591ZM231.646 4.70639C231.653 4.50336 231.617 4.30116 231.539 4.11405C231.461 3.92694 231.344 3.75948 231.196 3.6235C230.808 3.31835 230.321 3.17446 229.833 3.22088H228.919L228.156 6.85831H229.342C229.704 6.86562 230.065 6.80442 230.405 6.67782C230.681 6.57607 230.932 6.41508 231.142 6.20579C231.33 6.00857 231.475 5.77164 231.564 5.51162C231.636 5.24996 231.664 4.97759 231.646 4.70639Z" fill="#E2E2E2"/>
</g>
<defs>
<clipPath id="clip0_14_25">
<rect width="404" height="69" fill="white"/>
</clipPath>
</defs>
</svg>
