<svg width="1440" height="1024" viewBox="0 0 1440 1024" fill="none" xmlns="http://www.w3.org/2000/svg">
<g clip-path="url(#clip0_256_43)">
<path d="M1288.61 40.2734C1299.63 40.2734 1308.55 31.2377 1308.55 20.1328C1308.55 9.03541 1299.63 0 1288.61 0C1277.48 0.0002203 1268.51 9.03555 1268.51 20.1328C1268.51 31.2376 1277.48 40.2732 1288.61 40.2734ZM54.166 350.681C65.2694 350.68 74.3018 341.675 74.3018 330.548C74.3017 320.717 67.1843 312.494 57.8193 310.771V3.65234H50.4834V310.774C41.1081 312.506 34.001 320.724 34.001 330.548C34.001 341.675 43.0337 350.681 54.166 350.681ZM119.637 509.729C130.74 509.728 139.772 500.693 139.772 489.588C139.772 479.727 132.64 471.565 123.261 469.868V3.65234H115.954V469.878C106.585 471.595 99.5002 479.745 99.5 489.588C99.5 500.693 108.505 509.729 119.637 509.729ZM185.078 267.093C196.181 267.093 205.214 258.145 205.214 247.069C205.214 237.186 198.096 228.981 188.731 227.262V3.65234H181.453V227.262C172.164 228.981 165.115 237.186 165.115 247.069C165.115 258.145 174.061 267.093 185.078 267.093ZM37.6826 665.58C47.5368 665.58 55.7586 658.463 57.4844 649.1H188.731V386.146H254.23V3.65234H246.925V378.841H181.453V641.787H57.4844C55.7571 632.451 47.5354 625.336 37.6826 625.336C26.6369 625.336 17.6906 634.372 17.6904 645.439C17.6904 656.544 26.6368 665.58 37.6826 665.58ZM188.731 763.698H254.23V495.517H319.845V3.65234H312.51V488.211H246.925V756.394H181.453V875.595H123.261V809.554H57.4863C55.7635 800.186 47.5393 793.066 37.6826 793.066C26.6369 793.067 17.6907 802.101 17.6904 813.206C17.6904 824.303 26.6368 833.34 37.6826 833.34C47.5491 833.34 55.7796 826.205 57.4912 816.829H115.954V882.907H188.731V763.698ZM463.587 296.887C474.604 296.887 483.551 287.947 483.551 276.842C483.551 265.767 474.604 256.732 463.587 256.731C453.733 256.731 445.512 263.847 443.786 273.189H385.287V3.65234H377.98V280.495H443.785C445.509 289.844 453.732 296.887 463.587 296.887ZM447.104 192.841C458.208 192.841 467.24 183.813 467.24 172.708C467.24 162.85 460.123 154.677 450.757 152.965V3.65234H443.451V152.967C434.11 154.682 426.997 162.853 426.997 172.708C426.997 183.813 436.029 192.841 447.104 192.841ZM578.045 192.841C589.148 192.841 598.182 183.813 598.182 172.708C598.182 162.85 591.064 154.677 581.698 152.965V3.65234H574.363V152.971C565.012 154.694 557.909 162.861 557.909 172.708C557.909 183.813 566.942 192.841 578.045 192.841ZM561.591 296.887C571.446 296.887 579.647 289.844 581.366 280.495H647.169V3.65234H639.862V273.189H581.365C579.644 263.847 571.444 256.731 561.591 256.731C550.545 256.732 541.571 265.767 541.57 276.842C541.57 287.947 550.545 296.887 561.591 296.887ZM909.167 816.829H967.628C969.35 826.205 977.627 833.34 987.469 833.34C998.544 833.34 1007.46 824.303 1007.46 813.206C1007.46 802.101 998.544 793.125 987.469 793.125C977.638 793.125 969.368 800.198 967.634 809.554H901.892V875.595H843.723V756.394H778.257V488.211H712.64V3.65234H705.334V495.517H770.944V763.698H836.389V882.907H909.167V816.829ZM987.469 665.58C998.544 665.58 1007.46 656.544 1007.46 645.439C1007.46 634.372 998.544 625.395 987.469 625.395C977.352 625.395 968.89 632.885 967.5 642.617V642.5L843.723 641.787V378.841H778.257V3.65234H770.944V386.146H836.389V649.1H967.5V648.273C968.89 658.042 977.352 665.58 987.469 665.58ZM840.07 267.093C851.087 267.093 860.063 258.145 860.063 247.069C860.063 237.195 853.004 228.996 843.723 227.267V3.65234H836.389V227.266C827.018 228.993 819.938 237.193 819.938 247.069C819.938 258.145 828.936 267.093 840.07 267.093ZM905.544 509.729C916.619 509.728 925.647 500.782 925.647 489.647C925.647 479.782 918.522 471.581 909.167 469.872V3.65234H901.892V469.876C892.524 471.593 885.403 479.789 885.403 489.647C885.403 500.782 894.439 509.729 905.544 509.729ZM970.98 350.681C982.115 350.68 991.121 341.675 991.121 330.548C991.121 320.724 984.034 312.576 974.662 310.86V3.65234H967.299V310.863C957.977 312.587 950.877 320.73 950.877 330.548C950.877 341.675 959.912 350.681 970.98 350.681ZM1092 870.992C1103.16 870.992 1112.13 861.963 1112.13 850.888C1112.13 841.035 1105.07 832.812 1095.68 831.083V666.214H1030.24V470.029H1095.68V266.194H1161.21V3.65234H1153.85V258.859H1088.44V462.725H1022.9V673.519H1088.44V831.065C1079.06 832.758 1071.95 841.003 1071.95 850.888C1071.95 861.963 1080.92 870.992 1092 870.992ZM1606.76 870.992C1617.83 870.992 1626.93 861.963 1626.93 850.888C1626.93 841.043 1619.78 832.826 1610.44 831.088V666.214H1544.95V470.029H1610.44V266.194H1675.88V3.65234H1668.64V258.859H1603.11V462.725H1537.67V673.519H1603.11V831.083C1593.77 832.811 1586.66 841.034 1586.66 850.888C1586.66 861.963 1595.69 870.992 1606.76 870.992ZM1288.61 32.9395C1281.51 32.9392 1275.75 27.2095 1275.75 20.1328C1275.75 12.9753 1281.45 7.3049 1288.61 7.30469C1295.55 7.30469 1301.3 13.0562 1301.3 20.1328C1301.3 27.2096 1295.55 32.9395 1288.61 32.9395ZM1794.49 241.083C1805.56 241.083 1814.45 232.083 1814.45 221.008C1814.45 211.108 1807.43 202.892 1798.08 201.191V76.8809C1807.43 75.1772 1814.45 66.948 1814.45 57.1006C1814.45 46.0547 1805.56 37.1077 1794.49 37.1074C1783.33 37.1074 1774.32 46.0546 1774.32 57.1006C1774.32 66.9282 1781.41 75.1437 1790.81 76.8701V201.202C1781.41 202.925 1774.32 211.128 1774.32 221.008C1774.32 232.083 1783.33 241.083 1794.49 241.083ZM1043.04 241.171C1054.17 241.171 1063.09 232.135 1063.09 221.067C1063.09 211.219 1056.07 203 1046.73 201.266V76.9258C1056.08 75.1932 1063.09 66.9815 1063.09 57.1592C1063.09 46.1427 1054.17 37.166 1043.04 37.166C1031.97 37.1662 1022.9 46.1429 1022.9 57.1592C1022.9 66.9882 1030.04 75.2048 1039.39 76.9297V201.262C1030.04 202.988 1022.9 211.212 1022.9 221.067C1022.9 232.135 1031.97 241.171 1043.04 241.171ZM1569.83 241.171C1580.9 241.171 1589.87 232.135 1589.87 221.067C1589.87 211.213 1582.81 202.991 1573.48 201.263V76.9287C1582.81 75.2025 1589.87 66.9871 1589.87 57.1592C1589.87 46.1428 1580.9 37.1661 1569.83 37.166C1558.75 37.166 1549.67 46.1427 1549.67 57.1592C1549.67 66.9784 1556.81 75.1876 1566.15 76.9238V201.268C1556.81 203.005 1549.67 211.222 1549.67 221.067C1549.67 232.135 1558.75 241.171 1569.83 241.171ZM1419.53 274.052C1430.6 274.052 1439.51 265.045 1439.51 253.911C1439.51 244.064 1432.5 235.842 1423.18 234.113V128.354H1350.4V181.081H1292.23V40.8779H1284.96V188.386H1357.74V135.659H1415.9V234.108C1406.53 235.826 1399.36 244.054 1399.36 253.911C1399.36 265.045 1408.45 274.052 1419.53 274.052ZM1794.49 69.8994C1787.35 69.8994 1781.6 64.1773 1781.6 57.1006C1781.6 50.1121 1787.35 44.4121 1794.49 44.4121C1801.45 44.4123 1807.2 50.1123 1807.2 57.1006C1807.2 64.2655 1801.59 69.8992 1794.49 69.8994ZM1043.04 69.958C1036 69.9578 1030.24 64.2653 1030.24 57.1592C1030.24 50.1931 1036 44.4719 1043.04 44.4717C1050.09 44.4717 1055.84 50.1929 1055.84 57.1592C1055.84 64.317 1050.23 69.958 1043.04 69.958ZM1569.83 69.958C1562.69 69.958 1557.03 64.2654 1557.03 57.1592C1557.03 50.1929 1562.69 44.4717 1569.83 44.4717C1576.88 44.4718 1582.54 50.193 1582.54 57.1592C1582.54 64.3169 1576.99 69.9579 1569.83 69.958ZM1485.02 655.595C1496.1 655.595 1505.16 646.567 1505.17 635.491C1505.17 625.636 1498.02 617.435 1488.68 615.714V438.217H1423.18V309.457H1488.68V112.424C1498.02 110.699 1505.16 102.48 1505.17 92.625C1505.17 81.5201 1496.1 72.4913 1485.02 72.4912C1473.87 72.4912 1464.89 81.5201 1464.89 92.625C1464.89 102.477 1471.96 110.693 1481.34 112.422V302.152H1415.9V445.552H1481.34V615.716C1471.96 617.441 1464.89 625.639 1464.89 635.491C1464.89 646.567 1473.87 655.595 1485.02 655.595ZM1485.02 105.423C1477.89 105.423 1472.14 99.7016 1472.14 92.625C1472.14 85.5482 1477.89 79.7969 1485.02 79.7969C1492.07 79.797 1497.82 85.5483 1497.82 92.625C1497.82 99.7015 1492.07 105.423 1485.02 105.423ZM447.104 185.507C439.855 185.507 434.275 179.844 434.275 172.708C434.275 165.69 439.999 159.939 447.104 159.938C454.123 159.938 459.934 165.69 459.934 172.708C459.934 179.785 454.123 185.507 447.104 185.507ZM578.045 185.507C570.969 185.507 565.216 179.785 565.216 172.708C565.216 165.69 570.969 159.939 578.045 159.938C585.064 159.938 590.875 165.69 590.875 172.708C590.875 179.844 585.208 185.507 578.045 185.507ZM1222.97 462.003C1234.13 462.003 1243.11 453.004 1243.11 441.869C1243.11 432.006 1236.03 423.781 1226.62 422.065V348.037H1292.23V276.555H1226.8V207.067C1236.12 205.285 1243.11 197.117 1243.11 187.296C1243.11 176.191 1234.13 167.155 1222.97 167.155C1211.95 167.155 1202.98 176.191 1202.98 187.296C1202.98 197.216 1210.11 205.45 1219.46 207.12V283.89H1284.96V340.732H1219.29V422.08C1210.02 423.826 1202.98 432.032 1202.98 441.869C1202.98 453.003 1211.95 462.003 1222.97 462.003ZM1737.73 462.003C1748.8 462.003 1757.87 453.004 1757.87 441.869C1757.87 432.025 1750.74 423.814 1741.42 422.076V348.037H1806.82V276.555H1741.42V207.091C1750.74 205.356 1757.87 197.159 1757.87 187.296C1757.87 176.191 1748.8 167.155 1737.73 167.155C1726.6 167.155 1717.59 176.191 1717.59 187.296C1717.59 197.174 1724.69 205.381 1734.08 207.099V283.89H1799.49V340.732H1734.08V422.068C1724.69 423.79 1717.59 432.011 1717.59 441.869C1717.59 453.003 1726.6 462.003 1737.73 462.003ZM1222.97 200.124C1216.07 200.124 1210.31 194.395 1210.31 187.296C1210.31 180.219 1216.07 174.49 1222.97 174.49C1230.07 174.49 1235.83 180.219 1235.83 187.296C1235.83 194.395 1230.08 200.124 1222.97 200.124ZM1737.73 200.124C1730.63 200.124 1724.87 194.395 1724.87 187.296C1724.87 180.219 1730.63 174.49 1737.73 174.49C1744.78 174.49 1750.53 180.219 1750.53 187.296C1750.53 194.395 1744.78 200.124 1737.73 200.124ZM1794.49 233.777C1787.35 233.777 1781.6 228.085 1781.6 221.008C1781.6 213.872 1787.35 208.15 1794.49 208.15C1801.45 208.151 1807.2 213.872 1807.2 221.008C1807.2 228.136 1801.59 233.777 1794.49 233.777ZM1043.04 233.866C1036 233.866 1030.24 228.137 1030.24 221.067C1030.24 213.932 1036 208.232 1043.04 208.231C1050.09 208.231 1055.84 213.932 1055.84 221.067C1055.84 228.225 1050.23 233.866 1043.04 233.866ZM1569.83 233.866C1562.69 233.866 1557.03 228.137 1557.03 221.067C1557.03 213.932 1562.69 208.231 1569.83 208.231C1576.88 208.232 1582.54 213.932 1582.54 221.067C1582.54 228.225 1576.99 233.866 1569.83 233.866ZM185.078 259.78C178.059 259.78 172.422 254.087 172.422 247.069C172.422 239.934 178.06 234.212 185.078 234.212C192.27 234.212 197.907 239.875 197.907 247.069C197.907 254.087 192.125 259.78 185.078 259.78ZM840.07 259.78C832.854 259.78 827.242 254.227 827.242 247.069C827.242 239.934 832.964 234.212 840.07 234.212C847.007 234.212 852.759 239.934 852.759 247.069C852.759 254.087 847.007 259.78 840.07 259.78ZM1419.53 266.717C1412.48 266.717 1406.69 261.017 1406.69 253.911C1406.69 246.842 1412.48 241.083 1419.53 241.083C1426.49 241.083 1432.24 246.842 1432.24 253.911C1432.24 261.017 1426.49 266.717 1419.53 266.717ZM463.587 289.611C456.339 289.611 450.757 284.029 450.757 276.842C450.757 269.765 456.482 264.036 463.587 264.036C470.548 264.036 476.244 269.765 476.244 276.842C476.244 283.889 470.548 289.611 463.587 289.611ZM561.591 289.611C554.572 289.611 548.877 283.889 548.877 276.842C548.877 269.765 554.572 264.036 561.591 264.036C568.581 264.036 574.363 269.765 574.363 276.842C574.363 284.029 568.725 289.611 561.591 289.611ZM1288.61 779.03C1299.63 779.03 1308.55 770.024 1308.55 758.927C1308.55 749.043 1301.52 740.814 1292.23 739.09V527.188H1219.29V610.409H1161.21V325.576C1170.54 323.837 1177.67 315.619 1177.67 305.775C1177.67 294.678 1168.6 285.643 1157.53 285.643C1146.46 285.643 1137.54 294.678 1137.54 305.775C1137.54 315.618 1144.55 323.835 1153.85 325.575V617.744H1226.62V534.494H1284.96V739.089C1275.58 740.811 1268.51 749.041 1268.51 758.927C1268.51 770.024 1277.48 779.03 1288.61 779.03ZM1803.17 779.03C1814.25 779.03 1823.31 770.024 1823.31 758.927C1823.31 749.045 1816.17 740.818 1806.82 739.091V527.188H1734.07V610.409H1675.88V325.581C1685.28 323.852 1692.34 315.628 1692.34 305.775C1692.34 294.678 1683.37 285.643 1672.2 285.643C1661.13 285.643 1652.1 294.678 1652.1 305.775C1652.1 315.661 1659.25 323.908 1668.64 325.599V617.744H1741.42V534.494H1799.49V739.101C1790.22 740.848 1783.18 749.063 1783.18 758.927C1783.18 770.024 1792.15 779.03 1803.17 779.03ZM1157.53 318.611C1150.54 318.611 1144.87 312.852 1144.87 305.775C1144.87 298.699 1150.54 292.977 1157.53 292.977C1164.58 292.977 1170.33 298.699 1170.33 305.775C1170.33 312.852 1164.58 318.611 1157.53 318.611ZM1672.2 318.611C1665.15 318.611 1659.43 312.852 1659.43 305.775C1659.43 298.699 1665.15 292.977 1672.2 292.977C1679.34 292.977 1685.09 298.699 1685.09 305.775C1685.09 312.852 1679.34 318.611 1672.2 318.611ZM54.166 343.405C47.0609 343.405 41.3076 337.676 41.3076 330.548C41.3076 323.471 47.061 317.742 54.166 317.742C61.1559 317.742 66.9951 323.471 66.9951 330.548C66.9951 337.676 61.1559 343.405 54.166 343.405ZM970.98 343.405C963.933 343.405 958.182 337.676 958.182 330.548C958.182 323.383 963.882 317.83 970.98 317.83C978.087 317.83 983.786 323.53 983.786 330.548C983.786 337.676 978.087 343.405 970.98 343.405ZM1419.53 631.633C1430.6 631.633 1439.51 622.604 1439.51 611.47C1439.51 601.617 1432.5 593.399 1423.18 591.672V479.838H1357.74V378.016C1367 376.278 1374.08 368.06 1374.08 358.222C1374.08 347.146 1365.07 338.11 1354.08 338.11C1342.98 338.11 1333.95 347.146 1333.95 358.222C1333.95 368.063 1341.05 376.283 1350.4 378.018V487.144H1415.9V591.667C1406.53 593.383 1399.36 601.606 1399.36 611.47C1399.36 622.604 1408.45 631.633 1419.53 631.633ZM250.548 993.765C261.652 993.765 270.684 984.736 270.685 973.661C270.685 963.84 263.582 955.578 254.23 953.832V833.34H319.845V584.923H377.98V642.125C368.611 643.857 361.526 652.078 361.526 661.928C361.526 673.003 370.53 681.943 381.662 681.943C392.651 681.943 401.598 673.003 401.598 661.928C401.598 652.074 394.552 643.851 385.287 642.123V584.923H443.785C445.509 594.278 453.732 601.374 463.587 601.374C474.604 601.374 483.551 592.368 483.551 581.271C483.551 570.166 474.604 561.159 463.587 561.159C453.733 561.159 445.512 568.252 443.786 577.61H385.287V380.468C394.552 378.751 401.597 370.573 401.598 360.719C401.598 349.621 392.651 340.674 381.662 340.674C370.53 340.674 361.526 349.621 361.526 360.719C361.527 370.569 368.611 378.743 377.98 380.465V577.61H319.845V546.379C329.13 544.652 336.154 536.509 336.154 526.695C336.154 515.598 327.209 506.563 316.163 506.562C305.06 506.562 296.027 515.598 296.027 526.695C296.027 536.527 303.144 544.681 312.51 546.389V565.752C309.028 562.883 304.567 561.159 299.709 561.159C288.606 561.159 279.573 570.166 279.573 581.271C279.573 592.368 288.606 601.374 299.709 601.374C304.567 601.374 309.028 599.65 312.51 596.781V826.005H246.925V953.824C237.61 955.554 230.557 963.826 230.557 973.661C230.557 984.736 239.502 993.764 250.548 993.765ZM774.604 993.765C785.621 993.765 794.56 984.736 794.561 973.661C794.561 963.84 787.531 955.578 778.257 953.832V826.005H712.64V596.758C716.126 599.64 720.598 601.374 725.469 601.374C736.547 601.374 745.575 592.368 745.575 581.271C745.575 570.166 736.547 561.218 725.469 561.218C720.598 561.218 716.126 562.941 712.64 565.812V546.385C722.01 544.668 729.094 536.519 729.094 526.695C729.094 515.598 720.09 506.562 708.957 506.562C697.969 506.563 689.023 515.598 689.023 526.695C689.023 536.524 696.069 544.677 705.334 546.388V577.61H647.169V380.524C656.51 378.797 663.623 370.572 663.623 360.718C663.623 349.62 654.59 340.674 643.516 340.674C632.499 340.674 623.525 349.62 623.524 360.718C623.524 370.565 630.581 378.786 639.862 380.521V577.61H581.365C579.644 568.252 571.445 561.159 561.591 561.159C550.545 561.159 541.57 570.166 541.57 581.271C541.571 592.368 550.545 601.374 561.591 601.374C571.446 601.374 579.647 594.278 581.366 584.923H639.862V642.126C630.582 643.861 623.524 652.08 623.524 661.928C623.524 673.003 632.498 681.943 643.516 681.943C654.59 681.943 663.623 673.003 663.623 661.928C663.623 652.073 656.51 643.85 647.169 642.123V584.923H705.334V833.34H770.944V953.826C761.556 955.559 754.435 963.829 754.435 973.661C754.435 984.736 763.47 993.765 774.604 993.765ZM709.102 1135.44C720.148 1135.44 729.094 1126.46 729.094 1115.3C729.094 1105.49 722.069 1097.28 712.783 1095.54V958.093H647.169V806.844H581.698V672.37H516.229V543.669H581.698V383.229C591.064 381.505 598.182 373.282 598.182 363.45C598.182 352.353 589.148 343.405 578.045 343.405C566.942 343.406 557.909 352.353 557.909 363.45C557.909 373.245 565.012 381.459 574.363 383.214V536.364H450.757V383.2C460.123 381.482 467.24 373.282 467.24 363.45C467.24 352.353 458.208 343.405 447.104 343.405C436.029 343.405 426.997 352.353 426.997 363.45C426.997 373.279 434.11 381.477 443.451 383.198V543.669H508.922V672.37H443.451V806.844H377.98V958.093H312.366V1095.53C303.066 1097.26 296.027 1105.48 296.027 1115.3C296.027 1126.46 304.974 1135.44 316.02 1135.44C327.123 1135.44 336.154 1126.46 336.154 1115.3C336.154 1105.48 329.052 1097.27 319.701 1095.54V965.457H385.287V814.156H450.757V679.704H574.363V814.156H639.862V965.457H705.478V1095.53C696.128 1097.24 689.023 1105.46 689.023 1115.3C689.024 1126.46 698.027 1135.44 709.102 1135.44ZM1354.08 371.05C1346.95 371.05 1341.29 365.321 1341.29 358.222C1341.29 351.115 1346.95 345.387 1354.08 345.387C1361.04 345.387 1366.74 351.116 1366.74 358.222C1366.74 365.321 1361.04 371.05 1354.08 371.05ZM381.662 373.495C374.414 373.495 368.804 367.884 368.804 360.719C368.804 353.561 374.414 347.949 381.662 347.949C388.595 347.949 394.291 353.701 394.291 360.719C394.291 367.736 388.594 373.495 381.662 373.495ZM643.516 373.554C636.468 373.554 630.83 367.795 630.83 360.718C630.83 353.7 636.468 347.949 643.516 347.949C650.678 347.949 656.316 353.56 656.316 360.718C656.316 367.795 650.534 373.554 643.516 373.554ZM447.104 376.197C439.855 376.197 434.275 370.615 434.275 363.45C434.275 356.292 439.855 350.681 447.104 350.681C454.123 350.681 459.934 356.432 459.934 363.45C459.934 370.475 454.123 376.197 447.104 376.197ZM578.045 376.256C570.969 376.197 565.216 370.475 565.216 363.45C565.216 356.432 570.969 350.681 578.045 350.681C585.208 350.681 590.875 356.292 590.875 363.45C590.875 370.527 585.064 376.256 578.045 376.256ZM1222.97 454.697C1216.07 454.697 1210.31 448.946 1210.31 441.869C1210.31 434.793 1216.07 429.041 1222.97 429.041C1230.07 429.041 1235.83 434.792 1235.83 441.869C1235.83 448.946 1230.08 454.697 1222.97 454.697ZM1737.73 454.697C1730.63 454.697 1724.87 448.946 1724.87 441.869C1724.87 434.793 1730.63 429.041 1737.73 429.041C1744.78 429.041 1750.53 434.792 1750.53 441.869C1750.53 448.946 1744.78 454.697 1737.73 454.697ZM119.637 502.395C112.532 502.395 106.807 496.665 106.807 489.588C106.807 482.57 112.532 476.819 119.637 476.819C126.655 476.82 132.437 482.57 132.438 489.588C132.438 496.753 126.799 502.394 119.637 502.395ZM905.544 502.395C898.261 502.395 892.716 496.813 892.716 489.647C892.716 482.571 898.438 476.819 905.544 476.819C912.562 476.819 918.343 482.571 918.343 489.647C918.343 496.665 912.562 502.394 905.544 502.395ZM1092 518.528C1103.1 518.528 1111.93 509.581 1111.93 498.477C1111.93 487.35 1103.1 478.344 1092 478.344C1080.87 478.344 1071.9 487.35 1071.9 498.477C1071.9 509.581 1080.87 518.528 1092 518.528ZM1606.94 518.528C1617.92 518.528 1626.84 509.581 1626.84 498.477C1626.84 487.35 1617.92 478.344 1606.94 478.344C1595.77 478.344 1586.71 487.35 1586.71 498.477C1586.71 509.581 1595.77 518.528 1606.94 518.528ZM1092 511.194C1084.89 511.194 1079.14 505.612 1079.14 498.477C1079.14 491.378 1085.04 485.649 1092 485.648C1099.05 485.648 1104.69 491.378 1104.69 498.477C1104.69 505.502 1099.05 511.194 1092 511.194ZM1606.94 511.194C1599.71 511.194 1594.05 505.612 1594.05 498.477C1594.05 491.378 1599.89 485.648 1606.94 485.648C1613.98 485.649 1619.51 491.378 1619.51 498.477C1619.51 505.502 1613.98 511.194 1606.94 511.194ZM316.163 539.442C309.087 539.442 303.333 533.721 303.333 526.695C303.333 519.508 308.943 513.867 316.163 513.867C323.124 513.867 328.849 519.567 328.849 526.695C328.849 533.72 323.124 539.442 316.163 539.442ZM708.957 539.442C701.967 539.442 696.301 533.72 696.301 526.695C696.301 519.567 701.967 513.867 708.957 513.867C716.005 513.867 721.815 519.567 721.815 526.695C721.815 533.86 716.149 539.442 708.957 539.442ZM1092 658.128C1103.1 658.128 1111.93 649.151 1111.93 638.054C1111.93 628.235 1104.99 620.021 1095.68 618.283V518.528H1088.44V618.258C1079.01 619.942 1071.9 628.189 1071.9 638.054C1071.9 649.151 1080.87 658.128 1092 658.128ZM1606.94 658.04C1617.92 658.04 1626.84 649.1 1626.84 637.995C1626.84 628.125 1619.76 619.876 1610.44 618.197V518.528H1603.11V618.247C1593.77 620.033 1586.71 628.218 1586.71 637.995C1586.71 649.1 1595.77 658.04 1606.94 658.04ZM299.709 594.068C292.604 594.068 286.879 588.369 286.879 581.271C286.879 574.164 292.604 568.435 299.709 568.435C306.728 568.435 312.51 574.164 312.51 581.271C312.51 588.369 306.727 594.068 299.709 594.068ZM463.587 594.068C456.482 594.068 450.757 588.369 450.757 581.271C450.757 574.164 456.482 568.435 463.587 568.435C470.548 568.435 476.244 574.164 476.244 581.271C476.244 588.369 470.548 594.068 463.587 594.068ZM561.591 594.068C554.572 594.068 548.877 588.369 548.877 581.271C548.877 574.164 554.572 568.435 561.591 568.435C568.581 568.435 574.363 574.164 574.363 581.271C574.363 588.369 568.581 594.068 561.591 594.068ZM725.469 594.068C718.335 594.068 712.64 588.369 712.64 581.271C712.64 574.223 718.335 568.524 725.469 568.523C732.632 568.523 738.271 574.105 738.271 581.271C738.27 588.369 732.488 594.068 725.469 594.068ZM1419.53 624.327C1412.48 624.327 1406.69 618.576 1406.69 611.47C1406.69 604.393 1412.48 598.671 1419.53 598.671C1426.49 598.671 1432.24 604.393 1432.24 611.47C1432.24 618.576 1426.49 624.327 1419.53 624.327ZM1485.02 648.29C1477.89 648.29 1472.14 642.597 1472.14 635.491C1472.14 628.385 1477.89 622.663 1485.02 622.663C1492.07 622.663 1497.82 628.385 1497.82 635.491C1497.82 642.597 1492.07 648.29 1485.02 648.29ZM1606.94 650.734C1599.71 650.734 1594.05 645.182 1594.05 637.995C1594.05 630.889 1599.89 625.188 1606.94 625.188C1613.98 625.189 1619.51 630.889 1619.51 637.995C1619.51 645.042 1613.98 650.734 1606.94 650.734ZM1092 650.823C1084.89 650.823 1079.14 645.241 1079.14 638.054C1079.14 630.977 1085.04 625.248 1092 625.248C1099.05 625.248 1104.69 630.977 1104.69 638.054C1104.69 645.101 1099.05 650.823 1092 650.823ZM37.6826 658.275C30.6639 658.275 24.9971 652.546 24.9971 645.439C24.9972 638.341 30.664 632.612 37.6826 632.611C44.7013 632.611 50.4832 638.341 50.4834 645.439C50.4834 652.546 44.7014 658.275 37.6826 658.275ZM987.469 658.275C980.421 658.275 974.662 652.546 974.662 645.439C974.662 638.282 980.333 632.7 987.469 632.7C994.427 632.7 1000.18 638.422 1000.18 645.439C1000.18 652.546 994.428 658.275 987.469 658.275ZM1419.53 940.633C1430.66 940.633 1439.63 931.605 1439.63 920.5C1439.63 910.641 1432.56 902.42 1423.18 900.699V788.928H1488.68V664.719H1357.4C1355.68 655.351 1347.44 648.231 1337.6 648.23C1326.53 648.23 1317.46 657.266 1317.46 668.371C1317.46 679.476 1326.53 688.505 1337.6 688.505C1347.43 688.505 1355.66 681.405 1357.4 672.054H1481.34V781.593H1415.9V900.697C1406.53 902.413 1399.36 910.637 1399.36 920.5C1399.36 931.605 1408.45 940.633 1419.53 940.633ZM381.662 674.668C374.529 674.668 368.804 668.946 368.804 661.928C368.804 654.733 374.414 649.1 381.662 649.1C388.595 649.1 394.291 654.822 394.291 661.928C394.291 668.946 388.595 674.668 381.662 674.668ZM643.516 674.668C636.468 674.668 630.83 668.946 630.83 661.928C630.83 654.822 636.468 649.1 643.516 649.1C650.679 649.1 656.316 654.733 656.316 661.928C656.316 668.946 650.534 674.668 643.516 674.668ZM1337.6 681.199C1330.5 681.199 1324.8 675.448 1324.8 668.371C1324.8 661.294 1330.5 655.543 1337.6 655.543C1344.65 655.543 1350.4 661.294 1350.4 668.371C1350.4 675.448 1344.65 681.199 1337.6 681.199ZM1354.08 947.945C1365.07 947.945 1374.08 938.91 1374.08 927.805C1374.08 917.934 1367 909.744 1357.74 908.012V757.542H1423.18V723.614C1432.5 721.891 1439.51 713.689 1439.51 703.836C1439.51 692.702 1430.6 683.674 1419.53 683.674C1408.45 683.674 1399.36 692.702 1399.36 703.836C1399.36 713.699 1406.53 721.907 1415.9 723.619V750.237H1350.4V908.01C1341.05 909.739 1333.95 917.931 1333.95 927.805C1333.95 938.91 1342.98 947.945 1354.08 947.945ZM201.561 730.906C212.664 730.906 221.668 721.871 221.668 710.773C221.668 699.669 212.664 690.633 201.561 690.633C191.707 690.633 183.508 697.75 181.787 707.113H57.4844C55.7586 697.75 47.5367 690.633 37.6826 690.633C26.6368 690.633 17.6904 699.669 17.6904 710.773C17.6905 721.871 26.6368 730.906 37.6826 730.906C47.5385 730.906 55.7617 723.787 57.4854 714.426H181.786C183.505 723.787 191.705 730.906 201.561 730.906ZM987.469 730.906C998.544 730.906 1007.46 721.871 1007.46 710.773C1007.46 699.669 998.544 690.692 987.469 690.691C977.64 690.691 969.372 697.761 967.635 707.113H843.39C841.669 697.75 833.471 690.633 823.59 690.633C812.485 690.633 803.449 699.669 803.449 710.773C803.449 721.871 812.485 730.906 823.59 730.906C833.473 730.906 841.673 723.787 843.391 714.426H967.634C969.368 723.787 977.638 730.906 987.469 730.906ZM1419.53 716.664C1412.48 716.664 1406.69 710.913 1406.69 703.836C1406.69 696.73 1412.48 690.979 1419.53 690.979C1426.49 690.979 1432.24 696.73 1432.24 703.836C1432.24 710.913 1426.49 716.664 1419.53 716.664ZM37.6826 723.602C30.664 723.601 24.9972 717.843 24.9971 710.773C24.9971 703.667 30.6639 697.967 37.6826 697.967C44.7014 697.967 50.4834 703.667 50.4834 710.773C50.4833 717.843 44.7013 723.602 37.6826 723.602ZM201.561 723.602C194.456 723.601 188.732 717.843 188.731 710.773C188.731 703.667 194.456 697.967 201.561 697.967C208.579 697.967 214.361 703.667 214.361 710.773C214.361 717.843 208.579 723.602 201.561 723.602ZM823.59 723.602C816.513 723.602 810.762 717.843 810.762 710.773C810.762 703.667 816.513 697.967 823.59 697.967C830.608 697.967 836.389 703.667 836.389 710.773C836.389 717.843 830.608 723.601 823.59 723.602ZM987.469 723.602C980.421 723.602 974.662 717.843 974.662 710.773C974.662 703.608 980.333 698.026 987.469 698.026C994.428 698.027 1000.18 703.748 1000.18 710.773C1000.18 717.843 994.427 723.601 987.469 723.602ZM1092 1497.6C1103.16 1497.6 1112.13 1488.68 1112.13 1477.55C1112.13 1467.72 1105.07 1459.48 1095.68 1457.75V1297.33H1030.24V1168.6H1095.68V1034.18H1161.21V882.907H1226.8V745.435C1236.1 743.701 1243.11 735.514 1243.11 725.671C1243.11 714.566 1234.19 705.537 1223.12 705.537C1212.04 705.537 1202.98 714.566 1202.98 725.671C1202.98 735.526 1210.12 743.722 1219.46 745.441V875.595H1153.85V1026.84H1088.44V1161.33H1022.9V1304.67H1088.44V1457.73C1079.06 1459.43 1071.95 1467.69 1071.95 1477.55C1071.95 1488.68 1080.92 1497.6 1092 1497.6ZM1606.76 1497.6C1617.83 1497.6 1626.93 1488.68 1626.93 1477.55C1626.93 1467.73 1619.78 1459.56 1610.44 1457.83V1297.33H1544.95V1168.6H1610.44V1034.18H1675.88V882.907H1741.42V745.436C1750.74 743.703 1757.87 735.515 1757.87 725.671C1757.87 714.566 1748.8 705.537 1737.73 705.537C1726.66 705.537 1717.74 714.566 1717.74 725.671C1717.74 735.522 1724.76 743.715 1734.08 745.439V875.595H1668.64V1026.84H1603.11V1161.33H1537.67V1304.67H1603.11V1457.83C1593.77 1459.55 1586.66 1467.72 1586.66 1477.55C1586.66 1488.68 1595.69 1497.6 1606.76 1497.6ZM509.008 915.205C520.082 915.205 529.028 906.207 529.028 895.072C529.028 885.209 521.971 876.98 512.633 875.263V750.997C521.971 749.281 529.028 741.057 529.028 731.193C529.028 720.148 520.082 711.2 509.008 711.2C497.905 711.2 488.872 720.148 488.872 731.193C488.872 741.041 495.975 749.254 505.326 750.988V875.271C495.975 877.007 488.872 885.225 488.872 895.072C488.872 906.207 497.904 915.205 509.008 915.205ZM1223.12 738.47C1216.07 738.47 1210.31 732.777 1210.31 725.671C1210.31 718.565 1216.07 712.843 1223.12 712.843C1230.08 712.843 1235.83 718.565 1235.83 725.671C1235.83 732.777 1230.08 738.47 1223.12 738.47ZM1737.73 738.47C1730.74 738.47 1724.99 732.777 1724.99 725.671C1724.99 718.565 1730.74 712.843 1737.73 712.843C1744.78 712.843 1750.53 718.565 1750.53 725.671C1750.53 732.777 1744.78 738.47 1737.73 738.47ZM509.008 744.021C501.903 744.021 496.179 738.27 496.179 731.193C496.179 724.235 501.903 718.506 509.008 718.506C516.026 718.506 521.722 724.235 521.723 731.193C521.723 738.359 516.171 744.021 509.008 744.021ZM1288.61 771.725C1281.51 771.724 1275.75 766.003 1275.75 758.927C1275.75 751.821 1281.51 746.062 1288.61 746.062C1295.55 746.062 1301.3 751.82 1301.3 758.927C1301.3 766.003 1295.55 771.725 1288.61 771.725ZM1803.17 771.725C1796.18 771.725 1790.52 766.003 1790.52 758.927C1790.52 751.821 1796.18 746.062 1803.17 746.062C1810.28 746.062 1815.98 751.82 1815.98 758.927C1815.98 766.003 1810.28 771.725 1803.17 771.725ZM1537.72 969.346C1548.8 969.346 1557.8 960.339 1557.8 949.234C1557.8 939.397 1550.73 931.181 1541.4 929.441V805.127C1550.73 803.388 1557.8 795.171 1557.8 785.334C1557.8 774.288 1548.8 765.341 1537.72 765.341C1526.59 765.341 1517.62 774.288 1517.62 785.334C1517.62 795.187 1524.69 803.413 1534.07 805.135V929.434C1524.69 931.155 1517.62 939.381 1517.62 949.234C1517.62 960.339 1526.59 969.345 1537.72 969.346ZM1537.72 798.191C1530.62 798.191 1524.92 792.403 1524.92 785.334C1524.92 778.397 1530.62 772.646 1537.72 772.646C1544.72 772.646 1550.47 778.397 1550.47 785.334C1550.47 792.492 1544.86 798.191 1537.72 798.191ZM37.6826 826.005C30.6639 826.005 24.9971 820.283 24.9971 813.206C24.9973 806.13 30.6641 800.371 37.6826 800.371C44.7013 800.371 50.4832 806.129 50.4834 813.206C50.4834 820.283 44.7014 826.005 37.6826 826.005ZM987.469 826.005C980.421 826.005 974.662 820.283 974.662 813.206C974.662 806.041 980.333 800.43 987.469 800.43C994.427 800.43 1000.18 806.189 1000.18 813.206C1000.18 820.283 994.428 826.005 987.469 826.005ZM1092 863.687C1084.98 863.686 1079.23 857.964 1079.23 850.888C1079.23 843.752 1084.98 838.06 1092 838.06C1099.14 838.06 1104.89 843.752 1104.89 850.888C1104.89 857.964 1099.14 863.687 1092 863.687ZM1606.76 863.687C1599.66 863.687 1593.96 857.964 1593.96 850.888C1593.96 843.752 1599.66 838.06 1606.76 838.06C1613.89 838.06 1619.59 843.752 1619.59 850.888C1619.59 857.964 1613.89 863.686 1606.76 863.687ZM1157.53 1500.33C1168.6 1500.33 1177.67 1491.35 1177.67 1480.28C1177.67 1470.46 1170.54 1462.23 1161.21 1460.48V1263.39H1219.29V1294.59C1210.02 1296.33 1202.98 1304.49 1202.98 1314.3C1202.98 1325.43 1211.95 1334.44 1222.97 1334.44C1234.13 1334.44 1243.11 1325.43 1243.11 1314.3C1243.11 1304.46 1236.03 1296.28 1226.62 1294.58V1275.19C1230.12 1278.07 1234.6 1279.78 1239.46 1279.78C1250.58 1279.78 1259.59 1270.86 1259.59 1259.7C1259.59 1248.66 1250.58 1239.57 1239.46 1239.57C1234.6 1239.57 1230.12 1241.32 1226.62 1244.22V1015H1292.23V887.177C1301.52 885.453 1308.55 877.223 1308.55 867.339C1308.55 856.234 1299.63 847.235 1288.61 847.235C1277.48 847.236 1268.51 856.234 1268.51 867.339C1268.51 877.225 1275.58 885.456 1284.96 887.178V1007.66H1219.29V1256.05H1161.21V1198.9C1170.54 1197.15 1177.67 1188.92 1177.67 1179.1C1177.67 1167.97 1168.6 1159.05 1157.53 1159.05C1146.46 1159.05 1137.54 1167.97 1137.54 1179.1C1137.54 1188.92 1144.55 1197.15 1153.85 1198.9V1256.05H1095.35C1093.62 1246.72 1085.42 1239.57 1075.55 1239.57C1064.56 1239.57 1055.64 1248.66 1055.64 1259.7C1055.64 1270.86 1064.56 1279.78 1075.55 1279.78C1085.42 1279.78 1093.62 1272.76 1095.35 1263.39H1153.85V1460.49C1144.55 1462.23 1137.54 1470.46 1137.54 1480.28C1137.54 1491.35 1146.46 1500.33 1157.53 1500.33ZM1672.2 1500.33C1683.37 1500.33 1692.34 1491.35 1692.34 1480.28C1692.34 1470.45 1685.28 1462.26 1675.88 1460.54V1263.39H1734.08V1294.58C1724.69 1296.29 1717.59 1304.47 1717.59 1314.3C1717.59 1325.43 1726.6 1334.44 1737.73 1334.44C1748.8 1334.44 1757.87 1325.43 1757.87 1314.3C1757.87 1304.48 1750.74 1296.32 1741.42 1294.59V1275.3C1744.89 1278.16 1749.34 1279.87 1754.21 1279.87C1765.29 1279.87 1774.32 1270.86 1774.32 1259.7C1774.32 1248.66 1765.29 1239.57 1754.21 1239.57C1749.34 1239.57 1744.89 1241.3 1741.42 1244.17V1015H1806.82V887.176C1816.17 885.449 1823.31 877.22 1823.31 867.339C1823.31 856.234 1814.25 847.235 1803.17 847.235C1792.15 847.235 1783.18 856.234 1783.18 867.339C1783.18 877.202 1790.22 885.419 1799.49 887.166V1007.66H1734.08V1256.05H1675.88V1198.9C1685.28 1197.17 1692.34 1188.93 1692.34 1179.1C1692.34 1167.97 1683.37 1159.05 1672.2 1159.05C1661.13 1159.05 1652.1 1167.97 1652.1 1179.1C1652.1 1188.96 1659.25 1197.23 1668.64 1198.92V1256.05H1610.1C1608.37 1246.72 1600.13 1239.57 1590.31 1239.57C1579.23 1239.57 1570.17 1248.66 1570.17 1259.7C1570.17 1270.86 1579.23 1279.87 1590.31 1279.87C1600.13 1279.87 1608.37 1272.78 1610.1 1263.39H1668.64V1460.52C1659.25 1462.2 1652.1 1470.42 1652.1 1480.28C1652.1 1491.35 1661.13 1500.33 1672.2 1500.33ZM1288.61 880.146C1281.51 880.145 1275.75 874.445 1275.75 867.339C1275.75 860.262 1281.51 854.511 1288.61 854.511C1295.55 854.511 1301.3 860.262 1301.3 867.339C1301.3 874.445 1295.55 880.146 1288.61 880.146ZM1803.17 880.146C1796.18 880.145 1790.52 874.445 1790.52 867.339C1790.52 860.262 1796.18 854.511 1803.17 854.511C1810.28 854.511 1815.98 860.262 1815.98 867.339C1815.98 874.445 1810.28 880.146 1803.17 880.146ZM1022.96 1075.6C1034.13 1075.6 1043.04 1066.63 1043.04 1055.56C1043.04 1045.65 1036.02 1037.47 1026.64 1035.75V911.417C1036.02 909.694 1043.04 901.497 1043.04 891.618C1043.04 880.572 1034.13 871.625 1022.96 871.625C1011.89 871.625 1002.86 880.572 1002.86 891.618C1002.86 901.53 1010.01 909.75 1019.4 911.436V1035.73C1010.01 1037.41 1002.86 1045.62 1002.86 1055.56C1002.86 1066.63 1011.89 1075.6 1022.96 1075.6ZM1022.96 904.446C1015.94 904.446 1010.19 898.695 1010.19 891.618C1010.19 884.689 1015.95 878.96 1022.96 878.96C1030.01 878.96 1035.76 884.689 1035.76 891.618C1035.76 898.783 1030.19 904.446 1022.96 904.446ZM509.008 907.871C501.903 907.871 496.179 902.178 496.179 895.072C496.179 887.995 501.903 882.244 509.008 882.244C516.026 882.244 521.723 887.995 521.723 895.072C521.723 902.237 516.171 907.871 509.008 907.871ZM119.637 1157.3C130.74 1157.3 139.772 1148.27 139.772 1137.19C139.772 1127.35 132.64 1119.08 123.261 1117.36V1090.79H188.731V932.996C198.096 931.278 205.214 923.079 205.214 913.195C205.214 902.09 196.181 893.055 185.078 893.055C174.061 893.055 165.115 902.09 165.115 913.195C165.115 923.079 172.164 931.278 181.453 932.996V1083.46H115.954V1117.37C106.669 1119.13 99.6447 1127.38 99.6445 1137.19C99.6445 1148.27 108.591 1157.3 119.637 1157.3ZM905.544 1157.3C916.56 1157.3 925.508 1148.27 925.508 1137.19C925.508 1127.36 918.457 1119.1 909.167 1117.36V1083.46H843.723V932.991C853.004 931.263 860.063 923.069 860.063 913.195C860.063 902.09 851.087 893.055 840.07 893.055C828.936 893.055 819.938 902.09 819.938 913.195C819.938 923.072 827.018 931.266 836.389 932.992V1090.79H901.892V1117.36C892.524 1119.09 885.403 1127.36 885.403 1137.19C885.403 1148.27 894.439 1157.3 905.544 1157.3ZM201.561 1192.77C212.664 1192.77 221.668 1183.71 221.668 1172.63C221.668 1161.56 212.664 1152.5 201.561 1152.5C191.717 1152.5 183.525 1159.62 181.792 1168.95H57.8193V1059.35H123.261V940.307C132.64 938.596 139.772 930.368 139.772 920.5C139.772 909.395 130.74 900.367 119.637 900.367C108.505 900.367 99.5001 909.395 99.5 920.5C99.5 930.35 106.584 938.566 115.954 940.297V1052.1H50.4834V1176.28H181.787C183.508 1185.63 191.707 1192.77 201.561 1192.77ZM185.078 925.993C178.06 925.993 172.422 920.301 172.422 913.195C172.422 906.119 178.059 900.367 185.078 900.367C192.125 900.367 197.907 906.119 197.907 913.195C197.907 920.301 192.125 925.993 185.078 925.993ZM840.07 925.993C833.053 925.993 827.242 920.301 827.242 913.195C827.242 906.119 833.052 900.367 840.07 900.367C847.059 900.367 852.759 906.119 852.759 913.195C852.759 920.301 847.059 925.993 840.07 925.993ZM823.59 1192.77C833.471 1192.77 841.669 1185.63 843.39 1176.28H974.662V1052.1H909.167V940.305C918.523 938.591 925.647 930.365 925.647 920.5C925.647 909.395 916.619 900.367 905.544 900.367C894.439 900.367 885.403 909.395 885.403 920.5C885.403 930.358 892.524 938.579 901.892 940.301V1059.35H967.298V1168.95H843.385C841.653 1159.62 833.461 1152.5 823.59 1152.5C812.485 1152.5 803.449 1161.56 803.449 1172.63C803.449 1183.71 812.485 1192.77 823.59 1192.77ZM119.637 933.328C112.532 933.328 106.807 927.577 106.807 920.5C106.807 913.423 112.532 907.672 119.637 907.672C126.655 907.672 132.437 913.423 132.438 920.5C132.438 927.577 126.655 933.328 119.637 933.328ZM905.544 933.328C898.497 933.328 892.716 927.577 892.716 920.5C892.716 913.423 898.497 907.672 905.544 907.672C912.562 907.672 918.343 913.423 918.343 920.5C918.343 927.577 912.562 933.328 905.544 933.328ZM1419.53 933.328C1412.48 933.328 1406.69 927.577 1406.69 920.5C1406.69 913.423 1412.48 907.672 1419.53 907.672C1426.63 907.672 1432.39 913.423 1432.39 920.5C1432.39 927.577 1426.63 933.328 1419.53 933.328ZM1354.08 940.633C1346.95 940.633 1341.29 934.881 1341.29 927.805C1341.29 920.699 1346.95 915.007 1354.08 915.007C1361.04 915.007 1366.74 920.699 1366.74 927.805C1366.74 934.881 1361.04 940.633 1354.08 940.633ZM1537.72 962.069C1530.62 962.069 1524.92 956.311 1524.92 949.234C1524.92 942.128 1530.62 936.377 1537.72 936.377C1544.72 936.377 1550.47 942.128 1550.47 949.234C1550.47 956.37 1544.86 962.069 1537.72 962.069ZM1226.62 1352.76H1292.23V1084.61H1357.74V965.457H1415.9V1031.45H1481.68C1483.4 1040.78 1491.6 1047.88 1501.48 1047.88C1512.5 1047.87 1521.47 1038.87 1521.47 1027.79C1521.47 1016.72 1512.5 1007.66 1501.48 1007.66C1491.61 1007.66 1483.42 1014.78 1481.68 1024.11H1423.18V958.093H1350.4V1077.27H1284.96V1345.43H1219.29V1837.35H1226.62V1352.76ZM250.548 986.43C243.53 986.429 237.892 980.767 237.892 973.661C237.892 966.526 243.529 960.855 250.548 960.854C257.567 960.854 263.378 966.525 263.378 973.661C263.378 980.767 257.567 986.43 250.548 986.43ZM774.604 986.43C767.579 986.43 761.769 980.767 761.769 973.661C761.769 966.525 767.579 960.854 774.604 960.854C781.593 960.854 787.285 966.525 787.285 973.661C787.285 980.767 781.593 986.43 774.604 986.43ZM385.287 1584.12H450.757V1379.6H516.229V1379.08H574.363V1583.35H639.862V1839.04H647.169V1576.07H581.698V1371.69H516.229V1175.08H581.698V1009.91C591.064 1008.2 598.181 1000.02 598.182 990.112C598.182 979.037 589.148 969.979 578.045 969.979C566.942 969.979 557.909 979.037 557.909 990.112C557.909 1000.01 565.012 1008.18 574.363 1009.91V1167.83H508.922V1168.03H450.757V1009.91C460.123 1008.2 467.24 1000.02 467.24 990.112C467.24 979.037 458.208 969.979 447.104 969.979C436.029 969.979 426.997 979.037 426.997 990.112C426.997 1000.02 434.11 1008.2 443.451 1009.91V1175.36H508.922V1372.21H443.451V1576.87H377.98V1840.22H385.287V1584.12ZM447.104 1002.91C439.999 1002.91 434.276 997.248 434.275 990.112C434.275 983.065 439.999 977.314 447.104 977.313C454.123 977.313 459.934 983.065 459.934 990.112C459.933 997.248 454.123 1002.91 447.104 1002.91ZM578.045 1002.91C570.969 1002.91 565.216 997.248 565.216 990.112C565.216 983.065 570.969 977.314 578.045 977.313C585.064 977.313 590.875 983.065 590.875 990.112C590.875 997.248 585.063 1002.91 578.045 1002.91ZM1501.48 1040.54C1494.32 1040.54 1488.68 1034.99 1488.68 1027.79C1488.68 1020.69 1494.38 1015 1501.48 1015C1508.41 1015 1514.13 1020.69 1514.13 1027.79C1514.13 1034.84 1508.41 1040.54 1501.48 1040.54ZM1022.96 1068.35C1015.94 1068.35 1010.19 1062.6 1010.19 1055.56C1010.19 1048.42 1015.95 1042.7 1022.96 1042.7C1030.01 1042.7 1035.76 1048.42 1035.76 1055.56C1035.76 1062.69 1030.19 1068.35 1022.96 1068.35ZM381.662 1555.36C392.651 1555.36 401.598 1546.3 401.598 1535.22C401.598 1525.39 394.552 1517.15 385.287 1515.42V1223.26H312.51V1306.54H254.23V1101.9C263.582 1100.16 270.685 1091.89 270.685 1082.07C270.684 1071 261.652 1061.97 250.548 1061.97C239.502 1061.97 230.557 1071 230.557 1082.07C230.557 1091.91 237.61 1100.18 246.925 1101.91V1313.78H319.845V1230.59H377.98V1515.42C368.611 1517.16 361.526 1525.4 361.526 1535.22C361.526 1546.3 370.53 1555.36 381.662 1555.36ZM643.516 1555.36C654.59 1555.36 663.623 1546.3 663.623 1535.22C663.623 1525.39 656.51 1517.15 647.169 1515.42V1230.59H705.334V1313.78H778.257V1101.9C787.531 1100.16 794.561 1091.89 794.561 1082.07C794.56 1071 785.621 1061.97 774.604 1061.97C763.47 1061.97 754.435 1071 754.435 1082.07C754.435 1091.91 761.556 1100.18 770.944 1101.91V1306.54H712.64V1223.26H639.862V1515.43C630.582 1517.17 623.524 1525.4 623.524 1535.22C623.524 1546.3 632.498 1555.36 643.516 1555.36ZM250.548 1094.91C243.529 1094.91 237.892 1089.21 237.892 1082.07C237.892 1074.97 243.53 1069.28 250.548 1069.28C257.567 1069.28 263.378 1074.97 263.378 1082.07C263.378 1089.21 257.567 1094.91 250.548 1094.91ZM774.604 1094.91C767.579 1094.91 761.769 1089.21 761.769 1082.07C761.769 1074.97 767.579 1069.28 774.604 1069.28C781.593 1069.28 787.285 1074.97 787.285 1082.07C787.285 1089.21 781.593 1094.91 774.604 1094.91ZM316.02 1128.1C309.029 1128.1 303.333 1122.43 303.333 1115.3C303.333 1108.25 309.029 1102.53 316.02 1102.53C323.038 1102.53 328.849 1108.25 328.849 1115.3C328.849 1122.43 323.038 1128.1 316.02 1128.1ZM709.102 1128.1C702.112 1128.1 696.301 1122.43 696.301 1115.3C696.301 1108.25 702.112 1102.53 709.102 1102.53C716.149 1102.53 721.815 1108.25 721.815 1115.3C721.815 1122.43 716.149 1128.1 709.102 1128.1ZM1501.48 1150.25C1512.5 1150.25 1521.47 1141.33 1521.47 1130.2C1521.47 1119.13 1512.5 1110.07 1501.48 1110.07C1491.58 1110.07 1483.36 1117.23 1481.67 1126.61H1357.41C1355.71 1117.23 1347.45 1110.07 1337.6 1110.07C1326.53 1110.07 1317.46 1119.13 1317.46 1130.2C1317.46 1141.33 1326.53 1150.25 1337.6 1150.25C1347.43 1150.25 1355.66 1143.24 1357.4 1133.88H1481.68C1483.41 1143.24 1491.61 1150.25 1501.48 1150.25ZM1337.6 1143C1330.41 1143 1324.8 1137.39 1324.8 1130.2C1324.8 1123.15 1330.5 1117.4 1337.6 1117.4C1344.65 1117.4 1350.4 1123.15 1350.4 1130.2C1350.4 1137.25 1344.65 1143 1337.6 1143ZM1501.48 1143C1494.32 1143 1488.68 1137.39 1488.68 1130.2C1488.68 1123.15 1494.38 1117.4 1501.48 1117.4C1508.41 1117.4 1514.13 1123.15 1514.13 1130.2C1514.13 1137.25 1508.41 1143 1501.48 1143ZM119.637 1149.96C112.618 1149.96 106.95 1144.3 106.95 1137.19C106.95 1130.06 112.618 1124.39 119.637 1124.39C126.655 1124.39 132.437 1130.06 132.438 1137.19C132.438 1144.3 126.655 1149.96 119.637 1149.96ZM905.544 1149.96C898.497 1149.96 892.716 1144.3 892.716 1137.19C892.716 1130.06 898.497 1124.39 905.544 1124.39C912.562 1124.39 918.202 1130.06 918.202 1137.19C918.202 1144.3 912.562 1149.96 905.544 1149.96ZM201.561 1185.43C194.456 1185.43 188.731 1179.74 188.731 1172.63C188.731 1165.5 194.456 1159.83 201.561 1159.83C208.579 1159.83 214.361 1165.5 214.361 1172.63C214.361 1179.74 208.579 1185.43 201.561 1185.43ZM823.59 1185.43C816.601 1185.43 810.762 1179.74 810.762 1172.63C810.762 1165.5 816.601 1159.83 823.59 1159.83C830.608 1159.83 836.389 1165.5 836.389 1172.63C836.389 1179.74 830.608 1185.43 823.59 1185.43ZM1157.53 1191.9C1150.54 1191.9 1144.87 1186.15 1144.87 1179.1C1144.87 1172.06 1150.54 1166.3 1157.53 1166.3C1164.63 1166.3 1170.33 1171.91 1170.33 1179.1C1170.33 1186.24 1164.63 1191.9 1157.53 1191.9ZM1672.2 1191.9C1665.16 1191.9 1659.43 1186.15 1659.43 1179.1C1659.43 1172.06 1665.15 1166.3 1672.2 1166.3C1679.34 1166.3 1685.09 1172.06 1685.09 1179.1C1685.09 1186.24 1679.43 1191.9 1672.2 1191.9ZM1292.23 1462.16H1357.74V1199.24H1481.68C1483.4 1208.57 1491.61 1215.72 1501.48 1215.72C1512.5 1215.72 1521.47 1206.63 1521.47 1195.59C1521.47 1184.42 1512.5 1175.42 1501.48 1175.42C1491.6 1175.42 1483.4 1182.51 1481.68 1191.9H1350.4V1454.82H1284.96V1837.35H1292.23V1462.16ZM450.757 1219.23H448.701C459.027 1218.45 467.153 1209.85 467.153 1199.3C467.153 1188.16 458.208 1179.19 447.162 1179.19C436.087 1179.19 427.055 1188.16 427.055 1199.3C427.055 1209.85 435.261 1218.45 445.619 1219.23H443.451V1322.5H450.757V1219.23ZM581.698 1219.23H579.667C589.971 1218.45 598.124 1209.85 598.124 1199.3C598.124 1188.16 589.149 1179.19 578.132 1179.19C567 1179.19 557.995 1188.16 557.995 1199.3C557.995 1209.85 566.175 1218.45 576.581 1219.23H574.363V1322.5H581.698V1219.23ZM1501.48 1208.39C1494.38 1208.39 1488.68 1202.63 1488.68 1195.59C1488.68 1188.45 1494.38 1182.7 1501.48 1182.7C1508.41 1182.7 1514.13 1188.45 1514.13 1195.59C1514.13 1202.63 1508.41 1208.39 1501.48 1208.39ZM54.166 1768.51C65.2693 1768.51 74.3017 1759.54 74.3018 1748.38C74.3018 1738.54 67.1843 1730.3 57.8193 1728.57V1538.9H123.261V1395.51H57.8193V1225.31C67.1844 1223.6 74.3018 1215.39 74.3018 1205.48C74.3015 1194.41 65.2692 1185.37 54.166 1185.37C43.0339 1185.37 34.0012 1194.41 34.001 1205.48C34.001 1215.38 41.108 1223.58 50.4834 1225.31V1402.76H115.954V1531.57H50.4834V1728.58C41.1081 1730.31 34.001 1738.55 34.001 1748.38C34.001 1759.54 43.0338 1768.51 54.166 1768.51ZM970.98 1768.51C982.115 1768.51 991.121 1759.54 991.121 1748.38C991.121 1738.55 984.034 1730.31 974.662 1728.58V1531.57H909.167V1402.76H974.662V1225.31C984.034 1223.58 991.121 1215.38 991.121 1205.48C991.121 1194.41 982.115 1185.37 970.98 1185.37C959.913 1185.37 950.877 1194.41 950.877 1205.48C950.877 1215.37 957.976 1223.57 967.298 1225.31V1395.51H901.892V1538.9H967.298V1728.58C957.976 1730.33 950.877 1738.56 950.877 1748.38C950.877 1759.54 959.912 1768.51 970.98 1768.51ZM447.162 1212.04C439.999 1212.04 434.361 1206.43 434.361 1199.3C434.361 1192.19 440.143 1186.44 447.162 1186.44C454.209 1186.44 459.848 1192.19 459.848 1199.3C459.848 1206.29 454.209 1212.04 447.162 1212.04ZM578.132 1212.04C570.97 1212.04 565.274 1206.43 565.273 1199.3C565.273 1192.19 571.113 1186.44 578.132 1186.44C585.122 1186.44 590.817 1192.19 590.817 1199.3C590.817 1206.29 585.122 1212.04 578.132 1212.04ZM54.166 1218.28C47.0609 1218.28 41.3076 1212.61 41.3076 1205.48C41.3079 1198.43 47.0611 1192.71 54.166 1192.71C61.1558 1192.71 66.9949 1198.43 66.9951 1205.48C66.9951 1212.61 61.1559 1218.28 54.166 1218.28ZM970.98 1218.28C963.933 1218.28 958.182 1212.61 958.182 1205.48C958.182 1198.43 963.933 1192.71 970.98 1192.71C978.086 1192.71 983.786 1198.43 983.786 1205.48C983.786 1212.61 978.087 1218.28 970.98 1218.28ZM185.078 1502.95C196.181 1502.95 205.214 1493.86 205.214 1482.78C205.214 1472.9 198.097 1464.7 188.731 1462.98V1353.85H123.261V1249.31C132.64 1247.6 139.772 1239.37 139.772 1229.53C139.772 1218.37 130.74 1209.39 119.637 1209.39C108.591 1209.39 99.6445 1218.37 99.6445 1229.53C99.6448 1239.34 106.669 1247.55 115.954 1249.29V1361.19H181.453V1462.98C172.164 1464.7 165.115 1472.9 165.115 1482.78C165.115 1493.86 174.061 1502.95 185.078 1502.95ZM840.07 1502.95C851.087 1502.95 860.063 1493.86 860.063 1482.78C860.063 1472.91 853.004 1464.71 843.723 1462.98V1361.19H909.167V1249.3C918.457 1247.58 925.508 1239.36 925.508 1229.53C925.508 1218.37 916.56 1209.39 905.544 1209.39C894.439 1209.39 885.403 1218.37 885.403 1229.53C885.404 1239.36 892.524 1247.58 901.892 1249.3V1353.85H836.389V1462.98C827.018 1464.71 819.938 1472.91 819.938 1482.78C819.938 1493.86 828.936 1502.95 840.07 1502.95ZM119.637 1242.3C112.618 1242.3 106.95 1236.58 106.95 1229.53C106.95 1222.4 112.618 1216.73 119.637 1216.73C126.655 1216.73 132.438 1222.4 132.438 1229.53C132.437 1236.58 126.655 1242.3 119.637 1242.3ZM905.544 1242.3C898.497 1242.3 892.716 1236.58 892.716 1229.53C892.716 1222.4 898.497 1216.73 905.544 1216.73C912.562 1216.73 918.202 1222.4 918.202 1229.53C918.202 1236.58 912.562 1242.3 905.544 1242.3ZM1075.55 1272.45C1068.64 1272.45 1062.89 1266.75 1062.89 1259.7C1062.89 1252.66 1068.64 1246.9 1075.55 1246.9C1082.66 1246.9 1088.44 1252.66 1088.44 1259.7C1088.44 1266.9 1082.74 1272.45 1075.55 1272.45ZM1239.46 1272.45C1232.4 1272.45 1226.62 1266.75 1226.62 1259.7C1226.62 1252.66 1232.4 1246.9 1239.46 1246.9C1246.56 1246.9 1252.31 1252.66 1252.31 1259.7C1252.31 1266.9 1246.61 1272.45 1239.46 1272.45ZM1590.31 1272.53C1583.17 1272.53 1577.51 1266.84 1577.51 1259.7C1577.51 1252.66 1583.17 1246.9 1590.31 1246.9C1597.35 1246.9 1603.11 1252.66 1603.11 1259.7C1603.11 1266.84 1597.35 1272.53 1590.31 1272.53ZM1754.21 1272.53C1747.08 1272.53 1741.42 1266.84 1741.42 1259.7C1741.42 1252.66 1747.08 1246.9 1754.21 1246.9C1761.26 1246.9 1766.98 1252.66 1766.98 1259.7C1766.98 1266.84 1761.26 1272.53 1754.21 1272.53ZM1501.48 1453.38C1512.55 1453.38 1521.56 1444.41 1521.56 1433.33C1521.56 1423.44 1514.48 1415.24 1505.17 1413.51V1289.22C1514.48 1287.48 1521.56 1279.24 1521.56 1269.43C1521.56 1258.35 1512.55 1249.44 1501.48 1249.44C1490.35 1249.44 1481.34 1258.35 1481.34 1269.43C1481.34 1279.26 1488.44 1287.5 1497.82 1289.23V1413.5C1488.44 1415.22 1481.34 1423.43 1481.34 1433.33C1481.34 1444.41 1490.35 1453.38 1501.48 1453.38ZM1501.48 1282.23C1494.38 1282.23 1488.68 1276.47 1488.68 1269.43C1488.68 1262.47 1494.38 1256.68 1501.48 1256.68C1508.47 1256.68 1514.22 1262.47 1514.22 1269.43C1514.22 1276.56 1508.61 1282.23 1501.48 1282.23ZM1222.97 1327.1C1216.07 1327.1 1210.31 1321.41 1210.31 1314.3C1210.31 1307.31 1216.07 1301.56 1222.97 1301.56C1230.16 1301.56 1235.83 1307.2 1235.83 1314.3C1235.83 1321.41 1230.08 1327.1 1222.97 1327.1ZM1737.73 1327.1C1730.63 1327.1 1724.87 1321.41 1724.87 1314.3C1724.87 1307.31 1730.63 1301.56 1737.73 1301.56C1744.78 1301.56 1750.53 1307.31 1750.53 1314.3C1750.53 1321.49 1744.83 1327.1 1737.73 1327.1ZM447.162 1362.71C458.208 1362.71 467.153 1353.71 467.153 1342.64C467.153 1331.5 458.208 1322.5 447.162 1322.5C436.087 1322.5 427.055 1331.5 427.055 1342.64C427.055 1353.71 436.087 1362.71 447.162 1362.71ZM578.132 1362.71C589.149 1362.71 598.124 1353.71 598.124 1342.64C598.124 1331.5 589.149 1322.5 578.132 1322.5C567 1322.5 557.995 1331.5 557.995 1342.64C557.995 1353.71 567 1362.71 578.132 1362.71ZM447.162 1355.38C439.999 1355.38 434.361 1349.74 434.361 1342.64C434.361 1335.5 440.143 1329.75 447.162 1329.75C454.209 1329.75 459.848 1335.5 459.848 1342.64C459.848 1349.6 454.209 1355.38 447.162 1355.38ZM578.132 1355.38C570.97 1355.38 565.274 1349.74 565.273 1342.64C565.273 1335.5 571.113 1329.75 578.132 1329.75C585.122 1329.75 590.817 1335.5 590.817 1342.64C590.817 1349.6 585.121 1355.38 578.132 1355.38ZM1423.18 1371.13C1432.56 1369.43 1439.63 1361.29 1439.63 1351.41C1439.63 1340.33 1430.66 1331.27 1419.53 1331.27C1408.45 1331.27 1399.36 1340.33 1399.36 1351.41C1399.36 1361.3 1406.53 1369.44 1415.9 1371.13V1837.35H1423.18V1371.13ZM1419.53 1364.12C1412.48 1364.12 1406.69 1358.46 1406.69 1351.41C1406.69 1344.3 1412.39 1338.61 1419.53 1338.61C1426.63 1338.61 1432.39 1344.36 1432.39 1351.41C1432.39 1358.46 1426.63 1364.12 1419.53 1364.12ZM1794.49 1546.44C1805.56 1546.44 1814.45 1537.44 1814.45 1526.3C1814.45 1516.46 1807.43 1508.25 1798.08 1506.55V1382.21C1807.43 1380.52 1814.45 1372.33 1814.45 1362.48C1814.45 1351.41 1805.56 1342.49 1794.49 1342.49C1783.33 1342.49 1774.32 1351.41 1774.32 1362.48C1774.32 1372.31 1781.41 1380.48 1790.81 1382.2V1506.56C1781.41 1508.28 1774.32 1516.48 1774.32 1526.3C1774.32 1537.44 1783.33 1546.44 1794.49 1546.44ZM1794.49 1375.28C1787.35 1375.28 1781.6 1369.53 1781.6 1362.48C1781.6 1355.49 1787.35 1349.74 1794.49 1349.74C1801.45 1349.74 1807.2 1355.49 1807.2 1362.48C1807.2 1369.59 1801.59 1375.28 1794.49 1375.28ZM316.163 1673.81C327.209 1673.81 336.154 1664.81 336.154 1653.68C336.154 1643.81 329.058 1635.52 319.701 1633.83V1557.14H254.23V1500.27H319.845V1418.9C329.13 1417.16 336.154 1408.96 336.154 1399.07C336.154 1388 327.209 1379.02 316.163 1379.02C305.06 1379.02 296.027 1388 296.027 1399.07C296.027 1408.98 303.145 1417.19 312.51 1418.91V1492.94H246.925V1564.42H312.366V1633.88C303.072 1635.67 296.027 1643.9 296.027 1653.68C296.028 1664.81 305.06 1673.81 316.163 1673.81ZM708.957 1673.81C720.09 1673.81 729.094 1664.81 729.094 1653.68C729.094 1643.91 722.082 1635.68 712.783 1633.88V1564.42H778.257V1492.94H712.64V1418.9C722.01 1417.18 729.094 1408.97 729.094 1399.07C729.094 1388 720.09 1379.02 708.957 1379.02C697.969 1379.02 689.023 1388 689.023 1399.07C689.024 1408.98 696.069 1417.18 705.334 1418.91V1500.27H770.944V1557.14H705.477V1633.82C696.141 1635.5 689.023 1643.8 689.023 1653.68C689.024 1664.81 697.969 1673.81 708.957 1673.81ZM316.163 1411.96C309.145 1411.96 303.333 1406.21 303.333 1399.07C303.333 1392.03 309.144 1386.3 316.163 1386.3C323.182 1386.3 328.849 1392.03 328.849 1399.07C328.848 1406.21 323.182 1411.96 316.163 1411.96ZM708.957 1411.96C701.967 1411.96 696.301 1406.21 696.301 1399.07C696.301 1392.03 701.967 1386.3 708.957 1386.3C716.005 1386.3 721.815 1392.03 721.815 1399.07C721.815 1406.21 716.005 1411.96 708.957 1411.96ZM1501.48 1446.13C1494.38 1446.13 1488.68 1440.38 1488.68 1433.33C1488.68 1426.2 1494.38 1420.45 1501.48 1420.45C1508.47 1420.45 1514.22 1426.2 1514.22 1433.33C1514.22 1440.44 1508.61 1446.13 1501.48 1446.13ZM1092 1490.26C1084.98 1490.26 1079.23 1484.59 1079.23 1477.55C1079.23 1470.5 1084.98 1464.75 1092 1464.75C1099.14 1464.75 1104.89 1470.5 1104.89 1477.55C1104.89 1484.74 1099.22 1490.26 1092 1490.26ZM1606.76 1490.26C1599.6 1490.26 1593.96 1484.74 1593.96 1477.55C1593.96 1470.44 1599.6 1464.8 1606.76 1464.8C1613.89 1464.8 1619.59 1470.56 1619.59 1477.55C1619.59 1484.59 1613.89 1490.26 1606.76 1490.26ZM1157.53 1492.99C1150.54 1492.99 1144.87 1487.33 1144.87 1480.28C1144.87 1473.17 1150.54 1467.48 1157.53 1467.48C1164.58 1467.48 1170.33 1473.17 1170.33 1480.28C1170.33 1487.47 1164.63 1492.99 1157.53 1492.99ZM1672.2 1492.99C1665.16 1492.99 1659.43 1487.33 1659.43 1480.28C1659.43 1473.23 1665.15 1467.54 1672.2 1467.54C1679.43 1467.54 1685.09 1473.09 1685.09 1480.28C1685.09 1487.47 1679.43 1492.99 1672.2 1492.99ZM185.078 1495.61C178.06 1495.61 172.422 1489.83 172.422 1482.78C172.422 1475.68 178.059 1469.98 185.078 1469.98C192.125 1469.98 197.907 1475.68 197.907 1482.78C197.907 1489.83 192.125 1495.61 185.078 1495.61ZM840.07 1495.61C833.053 1495.61 827.242 1489.83 827.242 1482.78C827.242 1475.68 833.052 1469.98 840.07 1469.98C847.059 1469.98 852.759 1475.68 852.759 1482.78C852.759 1489.83 847.059 1495.61 840.07 1495.61ZM1488.68 1530.23C1498.03 1528.51 1505.17 1520.3 1505.17 1510.4C1505.16 1499.35 1496.1 1490.26 1485.02 1490.26C1473.87 1490.26 1464.89 1499.35 1464.89 1510.4C1464.89 1520.3 1471.96 1528.5 1481.34 1530.23V1837.35H1488.68V1530.23ZM1485.02 1523.28C1477.89 1523.28 1472.14 1517.53 1472.14 1510.4C1472.14 1503.35 1477.89 1497.6 1485.02 1497.6C1492.07 1497.6 1497.82 1503.35 1497.82 1510.4C1497.82 1517.53 1492.07 1523.28 1485.02 1523.28ZM1794.49 1539.19C1787.35 1539.19 1781.6 1533.41 1781.6 1526.3C1781.6 1519.26 1787.35 1513.5 1794.49 1513.5C1801.45 1513.5 1807.2 1519.26 1807.2 1526.3C1807.2 1533.5 1801.59 1539.19 1794.49 1539.19ZM381.662 1548.02C374.586 1548.02 368.804 1542.33 368.804 1535.22C368.804 1528.12 374.586 1522.42 381.662 1522.42C388.652 1522.42 394.291 1528.12 394.291 1535.22C394.291 1542.33 388.652 1548.02 381.662 1548.02ZM643.516 1548.02C636.468 1548.02 630.83 1542.33 630.83 1535.22C630.83 1528.12 636.468 1522.42 643.516 1522.42C650.534 1522.42 656.316 1528.12 656.316 1535.22C656.316 1542.33 650.534 1548.02 643.516 1548.02ZM1161.21 1560.54H1095.36C1093.66 1551.18 1085.44 1544.08 1075.55 1544.08C1064.56 1544.08 1055.64 1553.06 1055.64 1564.13C1055.64 1575.26 1064.56 1584.27 1075.55 1584.27C1085.43 1584.27 1093.64 1577.17 1095.35 1567.78H1153.85V1837.35H1161.21V1560.54ZM1675.88 1560.54H1610.12C1608.41 1551.18 1600.16 1544.08 1590.31 1544.08C1579.23 1544.08 1570.17 1553.06 1570.17 1564.13C1570.17 1575.26 1579.23 1584.27 1590.31 1584.27C1600.14 1584.27 1608.38 1577.17 1610.11 1567.78H1668.64V1837.35H1675.88V1560.54ZM1075.55 1576.99C1068.64 1576.99 1062.89 1571.24 1062.89 1564.13C1062.89 1557.14 1068.64 1551.42 1075.55 1551.42C1082.74 1551.42 1088.44 1557.03 1088.44 1564.13C1088.44 1571.24 1082.66 1576.99 1075.55 1576.99ZM1590.31 1576.99C1583.17 1576.99 1577.51 1571.24 1577.51 1564.13C1577.51 1557.14 1583.17 1551.42 1590.31 1551.42C1597.35 1551.42 1603.11 1557.14 1603.11 1564.13C1603.11 1571.32 1597.44 1576.99 1590.31 1576.99ZM254.23 1652.59H181.453V1705.37H123.261V1606.89C132.64 1605.17 139.772 1596.9 139.772 1587.09C139.772 1576.01 130.74 1566.92 119.637 1566.92C108.591 1566.92 99.6445 1576.01 99.6445 1587.09C99.6447 1596.87 106.669 1605.13 115.954 1606.88V1712.62H188.731V1659.92H246.925V1800.07H254.23V1652.59ZM778.257 1659.92H836.389V1712.62H909.167V1606.89C918.457 1605.16 925.508 1596.89 925.508 1587.09C925.508 1576.01 916.56 1566.92 905.544 1566.92C894.439 1566.92 885.403 1576.01 885.403 1587.09C885.403 1596.89 892.524 1605.16 901.892 1606.89V1705.37H843.723V1652.59H770.944V1800.07H778.257V1659.92ZM1741.47 1775.13C1752.54 1775.13 1761.46 1766.07 1761.46 1754.99C1761.46 1745.1 1754.41 1736.88 1745.07 1735.18V1610.92C1754.41 1609.21 1761.46 1600.93 1761.46 1591.08C1761.46 1580.04 1752.54 1571.12 1741.47 1571.12C1730.34 1571.12 1721.34 1580.04 1721.33 1591.08C1721.33 1600.91 1728.42 1609.17 1737.79 1610.91V1735.19C1728.42 1736.92 1721.33 1745.12 1721.33 1754.99C1721.34 1766.07 1730.34 1775.13 1741.47 1775.13ZM1357.74 1613.76C1367 1612.02 1374.08 1603.8 1374.08 1593.96C1374.08 1582.83 1365.07 1573.91 1354.08 1573.91C1342.98 1573.91 1333.95 1582.83 1333.95 1593.96C1333.95 1603.81 1341.05 1612.02 1350.4 1613.76V1837.35H1357.74V1613.76ZM119.637 1599.89C112.618 1599.89 106.95 1594.19 106.95 1587.09C106.95 1579.95 112.618 1574.26 119.637 1574.26C126.655 1574.26 132.438 1579.95 132.438 1587.09C132.437 1594.19 126.655 1599.89 119.637 1599.89ZM905.544 1599.89C898.497 1599.89 892.716 1594.19 892.716 1587.09C892.716 1579.95 898.497 1574.26 905.544 1574.26C912.562 1574.26 918.202 1579.95 918.202 1587.09C918.202 1594.19 912.562 1599.89 905.544 1599.89ZM1741.47 1603.91C1734.37 1603.91 1728.58 1598.13 1728.58 1591.08C1728.58 1584.12 1734.37 1578.46 1741.47 1578.46C1748.46 1578.46 1754.21 1584.12 1754.21 1591.08C1754.21 1598.22 1748.57 1603.91 1741.47 1603.91ZM1354.08 1606.76C1346.95 1606.76 1341.29 1601.01 1341.29 1593.96C1341.29 1586.8 1346.86 1581.19 1354.08 1581.19C1361.04 1581.19 1366.74 1586.91 1366.74 1593.96C1366.74 1601.01 1361.04 1606.76 1354.08 1606.76ZM590.961 1640.85C601.949 1640.85 610.924 1631.93 610.924 1620.8C610.924 1609.72 601.949 1600.66 590.961 1600.66C581.082 1600.66 572.88 1607.8 571.158 1617.15H446.827C445.101 1607.8 436.883 1600.66 427.055 1600.66C415.951 1600.66 406.919 1609.72 406.919 1620.8C406.919 1631.93 415.951 1640.85 427.055 1640.85C436.877 1640.85 445.092 1633.83 446.824 1624.48H571.161C572.889 1633.83 581.088 1640.85 590.961 1640.85ZM427.055 1633.51C419.863 1633.51 414.225 1627.99 414.225 1620.8C414.225 1613.75 419.949 1608 427.055 1608C434.159 1608 439.855 1613.75 439.855 1620.8C439.855 1627.85 434.159 1633.51 427.055 1633.51ZM590.961 1633.51C583.769 1633.51 578.132 1627.99 578.132 1620.8C578.132 1613.75 583.827 1608 590.961 1608C597.893 1608 603.618 1613.75 603.618 1620.8C603.618 1627.85 597.893 1633.51 590.961 1633.51ZM509.008 1834.24C520.082 1834.24 529.028 1825.24 529.028 1814.1C529.028 1804.27 521.971 1796.07 512.633 1794.36V1670.01C521.971 1668.3 529.028 1660.12 529.028 1650.28C529.028 1639.21 520.082 1630.29 509.008 1630.29C497.904 1630.29 488.872 1639.21 488.872 1650.28C488.872 1660.1 495.975 1668.27 505.326 1670V1794.36C495.975 1796.09 488.872 1804.28 488.872 1814.1C488.872 1825.24 497.904 1834.24 509.008 1834.24ZM509.008 1663.08C501.903 1663.08 496.179 1657.33 496.179 1650.28C496.179 1643.29 501.903 1637.54 509.008 1637.54C516.026 1637.54 521.723 1643.29 521.723 1650.28C521.723 1657.39 516.171 1663.08 509.008 1663.08ZM316.163 1666.54C309.145 1666.54 303.333 1660.78 303.333 1653.68C303.333 1646.63 309.144 1640.85 316.163 1640.85C323.182 1640.85 328.849 1646.63 328.849 1653.68C328.848 1660.78 323.182 1666.54 316.163 1666.54ZM708.957 1666.54C701.967 1666.54 696.301 1660.78 696.301 1653.68C696.301 1646.63 701.967 1640.85 708.957 1640.85C716.005 1640.85 721.815 1646.63 721.815 1653.68C721.815 1660.78 716.005 1666.54 708.957 1666.54ZM1095.68 1688.01C1105.07 1686.28 1112.13 1678.09 1112.13 1668.26C1112.13 1657.1 1103.16 1648.18 1092 1648.18C1080.92 1648.18 1071.95 1657.1 1071.95 1668.26C1071.95 1678.12 1079.06 1686.34 1088.44 1688.02V1837.35H1095.68V1688.01ZM1610.44 1688.01C1619.78 1686.29 1626.93 1678.17 1626.93 1668.35C1626.93 1657.19 1617.83 1648.18 1606.76 1648.18C1595.69 1648.18 1586.66 1657.19 1586.66 1668.35C1586.66 1678.18 1593.77 1686.3 1603.11 1688.01V1837.35H1610.44V1688.01ZM1092 1681.06C1084.98 1681.06 1079.23 1675.31 1079.23 1668.26C1079.23 1661.21 1084.98 1655.46 1092 1655.46C1099.22 1655.46 1104.89 1661.07 1104.89 1668.26C1104.89 1675.31 1099.14 1681.06 1092 1681.06ZM1606.76 1681.06C1599.66 1681.06 1593.96 1675.31 1593.96 1668.35C1593.96 1661.13 1599.6 1655.46 1606.76 1655.46C1613.89 1655.46 1619.59 1661.21 1619.59 1668.35C1619.59 1675.31 1613.89 1681.06 1606.76 1681.06ZM54.166 1761.18C47.1472 1761.18 41.3077 1755.51 41.3076 1748.38C41.3076 1741.33 47.1472 1735.57 54.166 1735.57C61.1559 1735.57 66.9951 1741.33 66.9951 1748.38C66.995 1755.51 61.1559 1761.18 54.166 1761.18ZM970.98 1761.18C963.933 1761.18 958.182 1755.51 958.182 1748.38C958.182 1741.33 963.933 1735.57 970.98 1735.57C978.087 1735.57 983.786 1741.33 983.786 1748.38C983.786 1755.51 978.087 1761.18 970.98 1761.18ZM1741.47 1767.79C1734.37 1767.79 1728.58 1762.04 1728.58 1754.99C1728.58 1747.89 1734.37 1742.1 1741.47 1742.1C1748.46 1742.1 1754.21 1747.89 1754.21 1754.99C1754.21 1762.1 1748.57 1767.79 1741.47 1767.79ZM250.548 1841C261.652 1841 270.684 1831.94 270.685 1820.86C270.685 1809.79 261.652 1800.73 250.548 1800.73C239.502 1800.73 230.557 1809.79 230.557 1820.86C230.557 1831.94 239.502 1841 250.548 1841ZM774.604 1841C785.621 1841 794.56 1831.94 794.561 1820.86C794.561 1809.79 785.621 1800.73 774.604 1800.73C763.47 1800.73 754.435 1809.79 754.435 1820.86C754.435 1831.94 763.47 1841 774.604 1841ZM509.008 1826.99C501.903 1826.99 496.179 1821.21 496.179 1814.1C496.179 1807.06 501.903 1801.3 509.008 1801.3C516.026 1801.3 521.723 1807.06 521.723 1814.1C521.723 1821.3 516.171 1826.99 509.008 1826.99ZM250.548 1833.67C243.53 1833.66 237.892 1827.97 237.892 1820.86C237.892 1813.82 243.529 1808.06 250.548 1808.06C257.567 1808.06 263.378 1813.82 263.378 1820.86C263.378 1828.06 257.711 1833.67 250.548 1833.67ZM774.604 1833.67C767.439 1833.67 761.769 1828.06 761.769 1820.86C761.769 1813.82 767.579 1808.06 774.604 1808.06C781.593 1808.06 787.285 1813.82 787.285 1820.86C787.285 1827.97 781.593 1833.67 774.604 1833.67Z" fill="#346DBF" fill-opacity="0.1"/>
</g>
<defs>
<clipPath id="clip0_256_43">
<rect width="1841" height="1841" fill="white"/>
</clipPath>
</defs>
</svg>
