<svg width="260" height="227" viewBox="0 0 260 227" fill="none" xmlns="http://www.w3.org/2000/svg">
<path d="M351.84 73.2994C352.796 60.0697 351.624 44.1752 342.82 39.1136C332.891 33.4212 322.515 32.2702 312.494 31.1506C303.876 30.1887 295.735 29.2899 288.859 25.4582C285.606 23.6448 281.936 20.7119 278.066 17.6213C270.666 11.724 263.034 5.63738 254.185 3.60327C244.687 1.42724 233.772 0.402344 219.834 0.402344C212.865 0.402344 205.881 0.654633 199.144 0.891158C193.856 1.06461 188.876 1.23798 184.019 1.30105C162.666 1.56912 148.466 4.86473 127.761 14.4361C114.686 20.4596 102.044 26.4831 91.4058 31.5921C82.8798 35.6761 77.9462 36.3226 67.1231 37.7102L65.8591 37.8678C46.8955 40.3119 15.1658 44.396 2.72384 65.431C-1.57766 72.7159 -0.760563 80.6947 5.00561 87.3016C10.926 94.082 19.6678 97.1095 27.4537 99.1752C31.2464 100.184 35.3477 101.036 39.9729 101.745C40.4201 101.824 40.8206 101.903 41.2215 101.998C44.4283 115.29 56.1611 125.193 70.1294 125.193C83.2035 125.193 94.3505 116.568 98.3591 104.473L98.4363 104.489C106.638 104.599 114.841 104.71 123.058 104.804C151.951 105.151 175.447 105.309 197.032 105.309C214.145 105.309 230.01 105.199 245.304 105.009C249.76 116.237 260.552 124.026 272.886 124.026C285.636 124.026 296.722 115.622 300.9 103.843C302.565 103.858 304.446 103.874 306.45 103.874C333.893 103.874 345.087 100.989 348.525 92.9152V92.931L348.694 92.4894C349.034 91.701 349.373 90.8022 349.666 89.8088L355 71.8802L351.84 73.2994ZM83.1576 95.375C82.8184 102.471 77.0828 108.037 70.1294 108.037C62.9448 108.037 57.0862 102.061 57.0862 94.697V94.4447C57.1479 91.3541 58.2737 88.5 60.0775 86.2609C62.7448 83.1072 66.7224 81.6566 70.3609 81.6566C72.026 81.6566 75.5413 81.9877 78.5632 84.558C79.4574 85.3306 80.2437 86.2136 80.9067 87.207C80.9375 87.2543 80.9681 87.3016 80.9989 87.3489C81.1685 87.6327 81.3536 87.9166 81.5078 88.2162C81.6311 88.437 81.739 88.6577 81.8315 88.8627C81.8932 88.9888 81.955 89.0992 82.0013 89.2253C82.4484 90.3291 82.6026 91.2595 82.7721 92.379C82.8801 93.0413 83.0034 93.6562 83.1576 94.2397C83.1576 94.3973 83.173 94.5393 83.173 94.697C83.173 94.9335 83.173 95.1543 83.1576 95.375ZM272.886 106.87C266.349 106.87 260.783 101.887 259.935 95.0912C259.874 94.6497 259.843 94.1294 259.843 93.5302C259.843 89.6985 261.446 86.2451 264.005 83.801C266.38 82.0823 269.587 81.1047 273.056 81.1047C276.139 81.1047 279.038 81.9246 281.258 83.328C284.11 85.7879 285.93 89.4462 285.93 93.5302C285.93 93.8298 285.914 94.1136 285.899 94.3974L285.868 94.7128C285.282 101.556 279.608 106.87 272.886 106.87ZM333.585 84.4948C331.242 85.299 324.519 86.734 306.45 86.734C304.97 86.734 303.552 86.7182 302.226 86.7024C301.116 80.7578 298.418 76.5161 295.936 73.7093C294.44 72.0064 292.698 70.5241 290.817 69.2469C285.822 65.3836 279.623 63.0499 272.886 63.0499C265.408 63.0499 258.594 65.904 253.352 70.5557C251.934 71.7068 250.577 72.9524 249.405 74.34C246.907 77.2887 244.24 81.7354 243.331 87.8851C228.653 88.0585 213.405 88.1531 197.032 88.1531C175.509 88.1531 152.074 87.9954 123.243 87.6643C115.164 87.5697 107.086 87.4593 99.0223 87.3489C98.7294 86.119 98.359 84.9364 97.9119 83.7696C97.9119 83.738 97.8965 83.6907 97.8811 83.6434C97.6961 83.1546 97.4958 82.6815 97.28 82.1927C97.0795 81.7197 96.8329 81.2151 96.5862 80.7105C96.4475 80.4267 96.3087 80.1586 96.1699 79.8905C96.0466 79.7013 95.985 79.5121 95.8617 79.3071C95.0599 77.9037 94.1503 76.5949 93.1636 75.3808C93.1327 75.3335 93.1018 75.3019 93.071 75.2704C91.9455 73.8828 90.7119 72.6213 89.4014 71.486C89.1085 71.2494 88.8467 71.0129 88.5537 70.7764C88.3379 70.6029 88.1063 70.4295 87.8596 70.2561C82.9106 66.4874 76.7744 64.2168 70.1294 64.2168C61.8502 64.2168 54.3113 67.7804 48.8689 73.4886C45.8162 76.6107 43.4265 80.4109 41.9619 84.7156C38.1383 84.1164 34.7616 83.4069 31.6781 82.5869C26.3128 81.152 20.4696 79.2598 17.5094 75.8696C17.0007 75.2862 16.8311 74.9235 16.8003 74.9078C16.8157 74.8289 16.8927 74.6239 17.0777 74.3085C25.3107 60.3851 52.0139 56.9476 67.9557 54.8977L69.2046 54.7242C80.6907 53.242 87.6132 52.3589 98.5289 47.1238C109.105 42.0464 121.671 36.0545 134.668 30.0468C153.446 21.39 165.01 18.6779 184.204 18.4413C189.246 18.394 194.333 18.2048 199.714 18.0313C206.313 17.7948 213.143 17.5582 219.834 17.5582C232.507 17.5582 242.251 18.4413 250.515 20.3335C255.695 21.5161 261.816 26.4043 267.752 31.1348C271.992 34.525 276.371 38.0098 280.826 40.517C290.616 45.9729 300.807 47.1082 310.674 48.1962C319.092 49.1423 327.063 50.0252 333.832 53.6362C336.191 58.5401 335.42 76.926 333.585 84.4948Z" fill="white" fill-opacity="0.31"/>
<path d="M54.9678 181.612C47.4207 177.839 45.1274 175.061 45.1274 169.694C45.1274 165.685 47.3279 160.996 53.5732 160.996C57.742 160.996 60.9654 162.638 62.9181 164.027C63.4295 164.374 64.0646 164.453 64.6225 164.248C65.1959 164.027 65.6453 163.538 65.7848 162.938L67.753 155.487C67.9544 154.714 67.6445 153.877 66.9781 153.42C64.979 152.046 60.6088 149.742 53.8211 149.742C42.4616 149.742 34.2173 158.565 34.2173 170.736C34.2173 180.57 39.4398 187.894 49.6679 192.488C56.5797 195.881 59.0283 199.102 59.0283 204.832C59.0283 211.193 55.433 214.981 49.4201 214.981C45.5303 214.981 41.2218 213.403 37.8899 210.767C37.394 210.372 36.7278 210.262 36.1234 210.467C35.5345 210.672 35.0851 211.193 34.9301 211.809L33.055 219.464C32.8846 220.175 33.1168 220.917 33.6592 221.39C37.1306 224.374 43.4071 226.457 48.9396 226.457C63.4914 226.457 70 215.218 70 204.09C70 193.703 65.5059 186.979 54.9678 181.612Z" fill="white" fill-opacity="0.31"/>
<path d="M109.106 214.028H87.0197V192.213H106.57C107.603 192.213 108.448 191.359 108.448 190.299V182.737C108.448 181.677 107.603 180.822 106.57 180.822H87.0197V162.155H107.885C108.918 162.155 109.763 161.285 109.763 160.241V152.663C109.763 151.619 108.918 150.765 107.885 150.765H77.8943C76.8612 150.765 76 151.619 76 152.663V223.52C76 224.58 76.8612 225.434 77.8943 225.434H109.106C110.155 225.434 111 224.58 111 223.52V215.958C111 214.898 110.155 214.028 109.106 214.028Z" fill="white" fill-opacity="0.31"/>
<path d="M150.798 203.59C149.62 196.871 147.54 192.221 144.481 189.483C149.926 185.773 153.077 179.102 153.077 171.029C153.077 165.202 151.364 159.804 148.366 156.222C144.618 151.748 139.357 149.742 131.326 149.742C126.248 149.742 121.048 150.315 117.377 151.286C116.566 151.493 116 152.273 116 153.149V223.508C116 224.575 116.826 225.434 117.836 225.434H124.902C125.927 225.434 126.753 224.575 126.753 223.508V194.53H131.403C136.022 194.753 138.852 196.791 140.504 206.806C142.293 217.25 143.379 222.33 144.251 224.304C144.557 224.989 145.2 225.434 145.934 225.434H153.153C153.78 225.434 154.362 225.1 154.698 224.575C155.035 224.033 155.096 223.333 154.851 222.759C153.735 220.021 152.297 212.124 150.798 203.59ZM142.4 172.08C142.4 179.261 138.423 183.703 132.045 183.703H126.753V161.094C127.9 160.855 129.598 160.68 131.801 160.68C138.928 160.791 142.4 164.517 142.4 172.08Z" fill="white" fill-opacity="0.31"/>
<path d="M202.131 150.765H194.587C193.752 150.765 193.01 151.334 192.793 152.173L183.548 187.277C181.709 194.111 180.256 199.996 179.096 205.232C177.983 200.044 176.7 194.633 175.355 189.033L166.373 152.204C166.172 151.35 165.429 150.765 164.579 150.765H156.865C156.293 150.765 155.736 151.034 155.396 151.492C155.04 151.967 154.917 152.568 155.056 153.138L172.989 223.995C173.19 224.833 173.948 225.434 174.798 225.434H182.574C183.425 225.434 184.151 224.849 184.383 224.042L203.925 153.185C204.095 152.6 203.971 151.983 203.615 151.524C203.275 151.034 202.719 150.765 202.131 150.765Z" fill="white" fill-opacity="0.31"/>
<path d="M215.109 150.765H207.891C206.859 150.765 206 151.619 206 152.663V223.52C206 224.58 206.859 225.434 207.891 225.434H215.109C216.156 225.434 217 224.58 217 223.52V152.663C217 151.619 216.156 150.765 215.109 150.765Z" fill="white" fill-opacity="0.31"/>
<path d="M266.17 153.104C265.002 152.315 260.561 149.742 252.246 149.742C234.157 149.742 222 165.385 222 188.683C222 211.619 233.235 226.457 250.633 226.457C257.595 226.457 263.143 224.579 266.017 222.827C266.693 222.416 267.031 221.595 266.877 220.806L265.433 213.466C265.31 212.85 264.91 212.345 264.342 212.093C263.788 211.856 263.143 211.888 262.651 212.219C260.038 213.861 256.027 214.871 252.154 214.871C240.243 214.871 233.127 204.958 233.127 188.352C233.127 171.288 240.351 161.107 252.492 161.107C256.211 161.107 259.762 162.054 262.482 163.759C262.989 164.075 263.604 164.138 264.157 163.901C264.71 163.664 265.11 163.175 265.264 162.575L266.954 155.124C267.123 154.351 266.816 153.53 266.17 153.104Z" fill="white" fill-opacity="0.31"/>
</svg>
