<svg width="322" height="53" viewBox="0 0 322 53" fill="none" xmlns="http://www.w3.org/2000/svg">
<g clip-path="url(#clip0_55_3)">
<path d="M42.9001 17.5636H65.3063L64.6109 22.2984H46.2904L45.5406 27.3531H62.6984L61.9595 32.0879H44.78L44.0084 37.196H62.329L61.6335 41.9308H39.2273L42.9001 17.5636Z" fill="#222220"/>
<path d="M67.6315 17.5636H86.5823C89.9508 17.5636 91.8524 21.0187 91.2222 25.5616C90.5919 30.1044 87.5711 33.5062 84.246 33.5062H69.2615L68.0336 41.9308H64.0674L67.6315 17.5636ZM84.9632 28.7714C86.0498 28.7714 86.9409 27.705 87.2669 25.5722C87.5928 23.4394 87.0278 22.3091 85.9194 22.3091H70.924L69.9678 28.7928L84.9632 28.7714Z" fill="#222220"/>
<path d="M94.2975 17.5103H115.4C119.018 17.5103 121.213 20.3042 120.529 24.2286C120.396 25.2738 120.054 26.283 119.523 27.1981C118.991 28.1132 118.281 28.9161 117.432 29.5606C119.029 30.7869 119.605 32.6851 119.236 35.1911C118.551 38.9769 115.617 41.9094 111.912 41.9094H90.4182L94.2975 17.5103ZM112.64 37.1426C113.802 37.1426 114.704 36.2895 115.009 34.5833C115.313 32.8771 114.617 32.0239 113.455 32.0239H96.2751L95.4602 37.132L112.64 37.1426ZM113.846 27.2998C115.009 27.2998 115.824 26.5426 116.128 24.8364C116.432 23.1302 115.824 22.2344 114.661 22.2344H97.8616L97.0466 27.2998H113.846Z" fill="#222220"/>
<path d="M123.778 17.5636H128.287L125.516 34.402C125.201 36.1083 125.788 37.196 127.092 37.196H142.424C143.685 37.196 144.674 36.1296 145 34.402L147.792 17.5636H152.302L149.509 34.402C148.792 38.4223 145.543 41.9201 141.664 41.9201H126.331C122.365 41.9201 120.29 38.465 121.007 34.402L123.778 17.5636Z" fill="#222220"/>
<path d="M242.22 17.5636H263.311C266.93 17.5636 269.125 20.3575 268.44 24.2819C268.308 25.3271 267.966 26.3364 267.434 27.2515C266.903 28.1665 266.192 28.9694 265.343 29.6139C266.941 30.8402 267.517 32.7384 267.147 35.2445C266.462 39.0302 263.529 41.9628 259.823 41.9628H238.362L242.22 17.5636ZM260.584 37.196C261.747 37.196 262.648 36.3429 262.953 34.6366C263.257 32.9304 262.561 32.0773 261.399 32.0773H244.219L243.404 37.1853L260.584 37.196ZM261.779 27.3531C262.942 27.3531 263.757 26.596 264.061 24.8897C264.365 23.1835 263.757 22.2877 262.594 22.2877H245.817L245.002 27.3531H261.779Z" fill="#222220"/>
<path d="M280.621 22.2984H270.081L270.82 17.5636H296.258L295.519 22.2984H284.979L281.795 41.9308H277.448L280.621 22.2984Z" fill="#222220"/>
<path d="M295.562 25.2736C296.225 20.8268 299.909 17.5636 303.658 17.5636H316.11C319.914 17.5636 322.554 20.8268 321.891 25.2736L320.457 34.2101C319.794 38.6569 316.11 41.9201 312.362 41.9201H299.941C296.106 41.9201 293.498 38.6569 294.161 34.2101L295.562 25.2736ZM313.111 37.196C313.938 37.198 314.734 36.8918 315.339 36.3395C315.945 35.7871 316.313 35.0298 316.371 34.2207L317.773 25.2843C318.066 23.4394 317.11 22.3091 315.415 22.3091H302.951C302.125 22.3071 301.329 22.6132 300.723 23.1656C300.118 23.7179 299.749 24.4752 299.692 25.2843L298.29 34.2207C297.996 36.1083 298.866 37.196 300.648 37.196H313.111Z" fill="#222220"/>
<path d="M56.9609 0.426556L55.7765 5.24668C55.7765 5.24668 37.9558 4.8841 31.7621 5.24668C24.9163 5.63058 19.6136 7.20885 15.6474 26.7133C11.0401 49.3529 24.1122 48.1159 24.1122 48.1159H174.664L173.578 52.7654H12.2571C10.1354 52.6797 8.06549 52.0967 6.2204 51.0652C4.37532 50.0337 2.80872 48.5836 1.65163 46.8362C-1.49959 41.8455 0.651934 29.1447 1.65163 23.3754C2.31447 19.5577 4.77025 12.0503 6.8457 8.75513C8.92116 5.45996 12.6592 1.07706 17.712 0.693156C23.1994 0.181285 56.9935 0.575852 56.9609 0.426556Z" fill="#222220"/>
<path d="M181.086 23.9406H176.403C176.403 23.6954 176.403 23.4821 176.403 23.2795C176.403 22.3944 175.99 22.0211 175.077 22.0211H160.234C159.671 21.9761 159.112 22.1479 158.676 22.5003C158.24 22.8526 157.961 23.3578 157.898 23.9086C157.094 27.6944 156.811 31.64 155.996 35.4257C155.714 36.7587 156.083 37.2173 157.463 37.2173C162.309 37.2173 167.145 37.2173 171.991 37.2173C172.51 37.2853 173.036 37.1675 173.473 36.8854C173.91 36.6033 174.229 36.1759 174.371 35.6817C174.436 35.5111 174.621 35.2765 174.762 35.2658C176.207 35.2658 177.663 35.2658 179.185 35.2658C178.815 37.164 178.652 39.0088 177.164 40.3525C176.167 41.3171 174.825 41.8607 173.426 41.8668H154.453C151.737 41.8668 150.28 40.0539 150.845 37.3879C151.932 32.2052 152.541 26.8732 153.649 21.6799C153.825 20.8332 154.203 20.0396 154.753 19.3647C155.303 18.6898 156.008 18.1528 156.811 17.7982C157.451 17.5208 158.143 17.3756 158.843 17.3716C165.254 17.3716 171.665 17.3716 178.076 17.3716C178.591 17.3487 179.105 17.4402 179.578 17.6392C180.052 17.8383 180.474 18.1397 180.812 18.5211C181.151 18.9025 181.397 19.3539 181.533 19.8418C181.669 20.3297 181.691 20.8413 181.597 21.3386C181.51 22.2024 181.271 23.0342 181.086 23.9406Z" fill="#222220"/>
<path d="M233.733 48.3505L240.394 0.362576C175.392 -5.1507 179 52.9254 179 52.9254H194.408C194.462 48.0012 195.004 43.0939 196.027 38.273H221.53L222.845 33.3996L197.147 33.7515C206.111 1.75956 235.178 5.07606 235.178 5.07606L228.376 52.9893H317.74L319.033 48.3398L233.733 48.3505Z" fill="#222220"/>
<path d="M69.1964 2.57002H66.6211L65.0455 9.88551H62.9266L64.5022 2.57002H61.8943L62.2529 0.927765H69.555L69.1964 2.57002Z" fill="#222220"/>
<path d="M84.1809 2.57002H80.9863L80.5516 4.58551H83.5724L83.2138 6.23843H80.2582L79.8127 8.25392H83.2138L82.8553 9.89618H77.4221L79.3672 0.938431H84.6265L84.1809 2.57002Z" fill="#222220"/>
<path d="M98.3181 5.51328L100.122 9.93884H97.7965L96.8837 7.09155C96.8791 7.03833 96.8791 6.98482 96.8837 6.9316C96.8837 6.86761 96.8837 6.80363 96.8837 6.73964V6.54769C96.8837 6.49082 96.8837 6.44105 96.8837 6.3984L96.7533 6.69699C96.7029 6.82164 96.6373 6.93981 96.5578 7.0489L94.3845 9.92817H91.8418L95.7537 5.31067L93.9933 0.970427H96.3948L97.1989 3.72173C97.1989 3.72173 97.1989 3.82837 97.1989 3.89236C97.1989 3.95634 97.1989 4.02033 97.1989 4.08431C97.1989 4.14829 97.1989 4.21228 97.1989 4.27626C97.1989 4.34025 97.1989 4.3829 97.1989 4.41489V4.28693L97.2749 4.1163L97.3619 3.93502L97.4705 3.76439L99.6438 0.959763H102.045L98.3181 5.51328Z" fill="#222220"/>
<path d="M118.062 8.13662H119.431L118.529 12.3489H116.606L117.138 9.89618H109.717L111.662 0.938431H113.726L112.162 8.14729H115.976L117.541 0.938431H119.605L118.062 8.13662Z" fill="#222220"/>
<path d="M135.655 2.57002H132.471L132.036 4.58551H135.013L134.644 6.23843H131.688L131.243 8.25392H134.644L134.285 9.89618H128.852L130.797 0.938431H136.057L135.655 2.57002Z" fill="#222220"/>
<path d="M152.095 9.89618H150.031L150.802 6.27042H147.053L146.271 9.89618H144.195L146.14 0.938431H148.216L147.433 4.51087H151.193L151.976 0.938431H154.04L152.095 9.89618Z" fill="#222220"/>
<path d="M170.622 2.57002H168.047L166.471 9.88551H164.407L165.982 2.57002H163.374L163.733 0.927765H170.981L170.622 2.57002Z" fill="#222220"/>
<path d="M186.802 3.47646C186.803 3.91033 186.722 4.34061 186.563 4.74547C186.407 5.15121 186.158 5.51616 185.835 5.81187C185.489 6.14417 185.079 6.40523 184.629 6.57968C184.04 6.77007 183.423 6.86023 182.803 6.84628H181.521L180.858 9.92817H178.761L180.706 0.97042H183.836C184.293 0.95897 184.748 1.02388 185.183 1.16237C185.529 1.27352 185.848 1.45522 186.117 1.69557C186.36 1.92118 186.545 2.19851 186.661 2.50603C186.765 2.81906 186.812 3.1474 186.802 3.47646ZM184.629 3.61509C184.635 3.45914 184.606 3.30382 184.544 3.1601C184.482 3.01637 184.388 2.88775 184.27 2.7833C183.961 2.54891 183.573 2.43839 183.184 2.47404H182.456L181.847 5.26801H182.792C183.081 5.27362 183.369 5.22661 183.64 5.12937C183.86 5.05122 184.06 4.92756 184.227 4.7668C184.377 4.61531 184.492 4.43332 184.564 4.2336C184.621 4.03261 184.643 3.8234 184.629 3.61509Z" fill="#222220"/>
</g>
<defs>
<clipPath id="clip0_55_3">
<rect width="322" height="53" fill="white"/>
</clipPath>
</defs>
</svg>
