<svg width="131" height="248" viewBox="0 0 131 248" fill="none" xmlns="http://www.w3.org/2000/svg">
<path d="M64.5 247.5C46.7 247.5 33.2 244.4 24 238.2C15 231.8 8.9 222.9 5.7 211.5C2.5 200.1 0.9 186.9 0.9 171.9H49.2C49.2 181.1 49.7 188.6 50.7 194.4C51.7 200.2 53.5 204.4 56.1 207C58.9 209.4 62.8 210.5 67.8 210.3C73 210.1 76.7 208 78.9 204C81.1 200 82.4 194.3 82.8 186.9C83.4 179.3 83.7 170.2 83.7 159.6C83.7 151.6 83.2 144.5 82.2 138.3C81.4 132.1 79.6 127.2 76.8 123.6C74.2 119.8 70.2 117.9 64.8 117.9C59.8 117.9 55.7 119.7 52.5 123.3C49.3 126.9 47 132.5 45.6 140.1H2.4L6.9 -1.85966e-05H120.3V42H47.1L44.4 92.1C46.4 89.3 50.2 86.9 55.8 84.9C61.4 82.7 67.4 81.3 73.8 80.7C86.2 79.3 96.6 81.6 105 87.6C113.6 93.4 120 102.3 124.2 114.3C128.6 126.3 130.8 141 130.8 158.4C130.8 171.4 130 183.4 128.4 194.4C126.8 205.2 123.7 214.6 119.1 222.6C114.5 230.4 107.8 236.5 99 240.9C90.2 245.3 78.7 247.5 64.5 247.5Z" fill="#382B10" fill-opacity="0.39"/>
</svg>
