<svg width="134" height="252" viewBox="0 0 134 252" fill="none" xmlns="http://www.w3.org/2000/svg">
<path d="M67.3 251.5C50.3 251.5 36.9 248.3 27.1 241.9C17.5 235.5 10.6 226.6 6.4 215.2C2.4 203.6 0.400001 190.3 0.400001 175.3V166.6H50.5C50.5 166.8 50.5 167.9 50.5 169.9C50.5 171.9 50.5 173.7 50.5 175.3C50.5 183.3 51 189.8 52 194.8C53 199.8 54.8 203.5 57.4 205.9C60 208.1 63.6 209.2 68.2 209.2C72.8 209.2 76.2 208 78.4 205.6C80.8 203.2 82.4 199.6 83.2 194.8C84 190 84.4 184 84.4 176.8C84.4 164.8 82.7 155.7 79.3 149.5C76.1 143.1 69.3 139.8 58.9 139.6C58.7 139.6 57.6 139.6 55.6 139.6C53.6 139.6 51.6 139.6 49.6 139.6V105.1C51 105.1 52.4 105.1 53.8 105.1C55.2 105.1 56.5 105.1 57.7 105.1C68.3 105.1 75.4 102.2 79 96.4C82.6 90.6 84.4 81.6 84.4 69.4C84.4 60 83.1 52.8 80.5 47.8C78.1 42.8 73.5 40.3 66.7 40.3C60.1 40.3 55.7 43.1 53.5 48.7C51.5 54.3 50.5 61.5 50.5 70.3C50.5 72.3 50.5 74.4 50.5 76.6C50.5 78.6 50.5 80.7 50.5 82.9H0.400001V68.2C0.400001 53.6 3 41.3 8.2 31.3C13.6 21.1 21.2 13.4 31 8.19998C41 2.99999 52.9 0.399992 66.7 0.399992C80.7 0.399992 92.7 2.89999 102.7 7.89998C112.7 12.9 120.4 20.3 125.8 30.1C131.2 39.7 133.9 51.7 133.9 66.1C133.9 80.3 131 92.2 125.2 101.8C119.4 111.4 112.4 117.3 104.2 119.5C109.8 121.5 114.8 124.7 119.2 129.1C123.8 133.5 127.4 139.5 130 147.1C132.6 154.5 133.9 164 133.9 175.6C133.9 190.4 131.7 203.5 127.3 214.9C123.1 226.3 116.1 235.3 106.3 241.9C96.5 248.3 83.5 251.5 67.3 251.5Z" fill="#382B10" fill-opacity="0.39"/>
</svg>
