<svg width="135" height="247" viewBox="0 0 135 247" fill="none" xmlns="http://www.w3.org/2000/svg">
<path d="M1.3 247V211.6L59.5 122.2C63.9 115.6 68 109.2 71.8 103C75.8 96.8 79 90.5 81.4 84.1C84 77.7 85.3 71 85.3 64C85.3 57 83.9 51.8 81.1 48.4C78.3 45 74.5 43.3 69.7 43.3C64.3 43.3 60.1 44.8 57.1 47.8C54.1 50.8 52 54.8 50.8 59.8C49.8 64.8 49.3 70.4 49.3 76.6V88.6H0.7V75.7C0.7 61.3 3 48.5 7.6 37.3C12.2 25.9 19.5 17 29.5 10.6C39.5 3.99999 52.6 0.699988 68.8 0.699988C90.6 0.699988 107 6.39999 118 17.8C129.2 29 134.8 44.7 134.8 64.9C134.8 74.7 133.2 83.8 130 92.2C127 100.6 122.9 108.8 117.7 116.8C112.7 124.6 107.3 132.8 101.5 141.4L57.1 207.7H128.2V247H1.3Z" fill="#382B10" fill-opacity="0.39"/>
</svg>
