<svg width="160" height="27" viewBox="0 0 160 27" fill="none" xmlns="http://www.w3.org/2000/svg">
<g clip-path="url(#clip0_56_45)">
<path d="M21.3168 8.94748H32.4503L32.1048 11.3596H23.0014L22.6288 13.9346H31.1545L30.7873 16.3467H22.2509L21.8675 18.9489H30.9709L30.6253 21.361H19.4918L21.3168 8.94748Z" fill="white"/>
<path d="M33.6058 8.94748H43.0223C44.6961 8.94748 45.641 10.7076 45.3278 13.0219C45.0147 15.3362 43.5136 17.0692 41.8614 17.0692H34.4157L33.8056 21.361H31.8348L33.6058 8.94748ZM42.2178 14.6571C42.7577 14.6571 43.2005 14.1139 43.3625 13.0274C43.5244 11.9408 43.2437 11.365 42.6929 11.365H35.2418L34.7666 14.668L42.2178 14.6571Z" fill="white"/>
<path d="M46.8559 8.92032H57.3415C59.1395 8.92032 60.2302 10.3437 59.89 12.3429C59.8242 12.8753 59.6543 13.3895 59.3902 13.8556C59.1261 14.3218 58.773 14.7308 58.3512 15.0592C59.1449 15.6839 59.4311 16.6509 59.2475 17.9276C58.9073 19.8561 57.4495 21.3501 55.6083 21.3501H44.9283L46.8559 8.92032ZM55.97 18.9217C56.5478 18.9217 56.9959 18.4871 57.1471 17.6179C57.2983 16.7487 56.9527 16.3141 56.375 16.3141H47.8386L47.4336 18.9163L55.97 18.9217ZM56.5694 13.9074C57.1471 13.9074 57.5521 13.5217 57.7032 12.6525C57.8544 11.7833 57.5521 11.327 56.9743 11.327H48.6269L48.2219 13.9074H56.5694Z" fill="white"/>
<path d="M61.5044 8.94748H63.7451L62.3683 17.5255C62.2117 18.3948 62.5033 18.9489 63.1512 18.9489H70.7697C71.3961 18.9489 71.8874 18.4056 72.0494 17.5255L73.437 8.94748H75.6778L74.2901 17.5255C73.9338 19.5736 72.3194 21.3555 70.3918 21.3555H62.7733C60.8025 21.3555 59.7712 19.5954 60.1276 17.5255L61.5044 8.94748Z" fill="white"/>
<path d="M120.358 8.94748H130.838C132.636 8.94748 133.727 10.3708 133.386 12.37C133.321 12.9025 133.151 13.4166 132.887 13.8828C132.623 14.349 132.269 14.758 131.848 15.0863C132.641 15.7111 132.928 16.6781 132.744 17.9547C132.404 19.8833 130.946 21.3773 129.105 21.3773H118.441L120.358 8.94748ZM129.483 18.9489C130.06 18.9489 130.509 18.5143 130.66 17.6451C130.811 16.7759 130.465 16.3412 129.888 16.3412H121.351L120.946 18.9435L129.483 18.9489ZM130.077 13.9346C130.654 13.9346 131.059 13.5489 131.211 12.6797C131.362 11.8105 131.059 11.3541 130.482 11.3541H122.145L121.74 13.9346H130.077Z" fill="white"/>
<path d="M139.439 11.3596H134.202L134.569 8.94748H147.209L146.842 11.3596H141.604L140.022 21.361H137.863L139.439 11.3596Z" fill="white"/>
<path d="M146.863 12.8752C147.193 10.6099 149.023 8.94748 150.886 8.94748H157.074C158.963 8.94748 160.275 10.6099 159.946 12.8752L159.233 17.4278C158.904 19.6932 157.074 21.3555 155.211 21.3555H149.039C147.133 21.3555 145.837 19.6932 146.167 17.4278L146.863 12.8752ZM155.583 18.9489C155.994 18.9499 156.39 18.7939 156.69 18.5126C156.991 18.2312 157.174 17.8454 157.203 17.4332L157.9 12.8807C158.045 11.9408 157.57 11.365 156.728 11.365H150.535C150.124 11.364 149.729 11.5199 149.428 11.8013C149.127 12.0827 148.944 12.4685 148.915 12.8807L148.219 17.4332C148.073 18.3948 148.505 18.9489 149.39 18.9489H155.583Z" fill="white"/>
<path d="M28.3036 0.217297L27.7151 2.67283C27.7151 2.67283 18.8601 2.48812 15.7824 2.67283C12.3808 2.8684 9.74592 3.67243 7.77515 13.6086C5.48581 25.142 11.9813 24.5119 11.9813 24.5119H86.7898L86.2498 26.8805H6.09054C5.03629 26.8368 4.00775 26.5398 3.09093 26.0143C2.17412 25.4889 1.39569 24.7501 0.820736 23.86C-0.745086 21.3175 0.323993 14.8473 0.820736 11.9082C1.1501 9.96337 2.37036 6.13883 3.40164 4.46015C4.43293 2.78148 6.29031 0.548685 8.80103 0.353111C11.5277 0.0923469 28.3198 0.293353 28.3036 0.217297Z" fill="white"/>
<path d="M89.9808 12.1962H87.6536C87.6536 12.0712 87.6536 11.9626 87.6536 11.8594C87.6536 11.4085 87.4485 11.2183 86.9949 11.2183H79.6193C79.3396 11.1954 79.0619 11.2829 78.8452 11.4624C78.6285 11.6419 78.4898 11.8992 78.4585 12.1799C78.0589 14.1085 77.9185 16.1185 77.5136 18.0471C77.3732 18.7262 77.5568 18.9598 78.2425 18.9598C80.6506 18.9598 83.0533 18.9598 85.4615 18.9598C85.7191 18.9944 85.9806 18.9344 86.1978 18.7907C86.415 18.647 86.5734 18.4292 86.6439 18.1775C86.6763 18.0905 86.7681 17.971 86.8383 17.9656C87.5564 17.9656 88.28 17.9656 89.0359 17.9656C88.8523 18.9326 88.7713 19.8724 88.0316 20.5569C87.5364 21.0484 86.8697 21.3253 86.1742 21.3284H76.7469C75.397 21.3284 74.6735 20.4048 74.9543 19.0467C75.4942 16.4064 75.7966 13.6901 76.3473 11.0445C76.4346 10.6131 76.6226 10.2089 76.8958 9.86503C77.169 9.5212 77.5196 9.24767 77.9185 9.06701C78.2367 8.92572 78.5804 8.85175 78.9282 8.8497C82.1139 8.8497 85.2995 8.8497 88.4851 8.8497C88.7409 8.83804 88.9961 8.88464 89.2315 8.98604C89.4669 9.08743 89.6765 9.241 89.8447 9.43529C90.0129 9.62957 90.1353 9.85956 90.2028 10.1081C90.2703 10.3566 90.2811 10.6173 90.2345 10.8706C90.1913 11.3107 90.0726 11.7344 89.9808 12.1962Z" fill="white"/>
<path d="M116.141 24.6314L119.451 0.184701C87.1515 -2.62395 88.9441 26.962 88.9441 26.962H96.6004C96.6269 24.4534 96.8964 21.9535 97.4049 19.4976H110.077L110.731 17.0149L97.9611 17.1942C102.416 0.896371 116.859 2.58591 116.859 2.58591L113.479 26.9946H157.883L158.526 24.6259L116.141 24.6314Z" fill="white"/>
<path d="M34.3833 1.30926H33.1036L32.3207 5.03602H31.2678L32.0508 1.30926H30.7549L30.9331 0.472641H34.5615L34.3833 1.30926Z" fill="white"/>
<path d="M41.829 1.30926H40.2416L40.0257 2.33602H41.5267L41.3485 3.17807H39.8799L39.6585 4.20483H41.3485L41.1703 5.04145H38.4706L39.4371 0.478073H42.0504L41.829 1.30926Z" fill="white"/>
<path d="M48.8536 2.80866L49.7499 5.06318H48.5945L48.1409 3.61268C48.1386 3.58557 48.1386 3.5583 48.1409 3.53119C48.1409 3.4986 48.1409 3.466 48.1409 3.43341V3.33562C48.1409 3.30664 48.1409 3.28129 48.1409 3.25956L48.0761 3.41167C48.0511 3.47518 48.0184 3.53538 47.9789 3.59095L46.8991 5.05775H45.6356L47.5794 2.70544L46.7047 0.49437H47.898L48.2975 1.89598C48.2975 1.89598 48.2975 1.95031 48.2975 1.9829C48.2975 2.0155 48.2975 2.04809 48.2975 2.08069C48.2975 2.11328 48.2975 2.14588 48.2975 2.17847C48.2975 2.21107 48.2975 2.2328 48.2975 2.2491V2.18391L48.3353 2.09699L48.3785 2.00463L48.4325 1.91771L49.5124 0.488937H50.7056L48.8536 2.80866Z" fill="white"/>
<path d="M58.6643 4.14508H59.3447L58.8965 6.29095H57.9408L58.2054 5.04145H54.5176L55.4841 0.478073H56.51L55.7325 4.15051H57.6277L58.4052 0.478073H59.431L58.6643 4.14508Z" fill="white"/>
<path d="M67.4059 1.30926H65.8239L65.6079 2.33602H67.0874L66.9038 3.17807H65.4352L65.2138 4.20483H66.9038L66.7256 5.04145H64.0259L64.9924 0.478073H67.6057L67.4059 1.30926Z" fill="white"/>
<path d="M75.5752 5.04145H74.5493L74.9327 3.19437H73.0699L72.6811 5.04145H71.6498L72.6163 0.478073H73.6476L73.2589 2.29799H75.1271L75.5158 0.478073H76.5417L75.5752 5.04145Z" fill="white"/>
<path d="M84.7812 1.30926H83.5015L82.7186 5.03602H81.6927L82.4756 1.30926H81.1798L81.358 0.472641H84.9593L84.7812 1.30926Z" fill="white"/>
<path d="M92.8208 1.77103C92.8213 1.99206 92.781 2.21126 92.7021 2.41751C92.6247 2.62421 92.5009 2.81013 92.3403 2.96077C92.1684 3.13006 91.9647 3.26305 91.741 3.35192C91.4485 3.44891 91.1417 3.49484 90.8339 3.48773H90.1967L89.8674 5.05775H88.8253L89.7918 0.49437H91.3468C91.5739 0.488537 91.8003 0.521604 92.0163 0.592157C92.1884 0.648779 92.3466 0.741344 92.4807 0.863787C92.601 0.978719 92.6934 1.12 92.7506 1.27666C92.8023 1.43613 92.826 1.6034 92.8208 1.77103ZM91.741 1.84165C91.7439 1.76221 91.7294 1.68308 91.6987 1.60987C91.6679 1.53665 91.6215 1.47112 91.5628 1.41791C91.4091 1.29851 91.2162 1.2422 91.0228 1.26037H90.6611L90.3587 2.68371H90.8285C90.972 2.68657 91.1148 2.66262 91.2496 2.61308C91.3589 2.57327 91.4583 2.51027 91.5412 2.42837C91.616 2.3512 91.6731 2.25849 91.7086 2.15674C91.7372 2.05435 91.7482 1.94778 91.741 1.84165Z" fill="white"/>
</g>
<defs>
<clipPath id="clip0_56_45">
<rect width="160" height="27" fill="white"/>
</clipPath>
</defs>
</svg>
