<svg width="80" height="80" viewBox="0 0 80 80" fill="none" xmlns="http://www.w3.org/2000/svg">
<path d="M2.58952 52.1433C2.58952 46.6203 7.06667 42.1433 12.5895 42.1433H67.4097C72.9327 42.1433 77.4097 46.6206 77.4097 52.1433V60.9426C77.4097 62.7836 75.9173 64.276 74.0763 64.276H5.92283C4.0819 64.276 2.58952 62.7836 2.58952 60.9426V52.1433Z" stroke="#CBD7EB" stroke-width="4"/>
<path d="M13.3333 53.3334H20" stroke="#CBD7EB" stroke-width="4" stroke-linecap="round" stroke-linejoin="round"/>
<path d="M66.6667 53.3334H60" stroke="#CBD7EB" stroke-width="4" stroke-linecap="round" stroke-linejoin="round"/>
<path d="M5.083 64.276V69.125C5.083 71.8797 7.3162 74.113 10.071 74.113C12.8258 74.113 15.059 71.8797 15.059 69.125V64.276" stroke="#CBD7EB" stroke-width="4"/>
<path d="M64.9397 64.276V69.125C64.9397 71.8797 67.173 74.113 69.9277 74.113C72.6827 74.113 74.9157 71.8797 74.9157 69.125V64.276" stroke="#CBD7EB" stroke-width="4"/>
<path d="M10.0716 42.1434L16.3066 26.1586" stroke="#CBD7EB" stroke-width="4" stroke-linecap="round"/>
<path d="M69.9283 42.1434L63.6933 26.1586" stroke="#CBD7EB" stroke-width="4" stroke-linecap="round"/>
<path d="M37.0597 5.83551C38.3153 3.48647 41.683 3.48647 42.939 5.83551L44.7923 9.30244C45.315 10.2802 46.2897 10.9341 47.3927 11.0469L50.8543 11.4011C53.8247 11.7049 54.928 15.4605 52.5943 17.3227L50.7477 18.7959C49.7453 19.5958 49.2907 20.8998 49.5783 22.1496L50.1673 24.7063C50.795 27.4323 47.9883 29.6725 45.4693 28.456L41.449 26.5143C40.533 26.072 39.4653 26.072 38.5497 26.5143L34.5293 28.456C32.0102 29.6725 29.2034 27.4323 29.8312 24.7063L30.4201 22.1496C30.7079 20.8998 30.2532 19.5958 29.2507 18.7959L27.4043 17.3227C25.0704 15.4605 26.1737 11.7049 29.144 11.4011L32.6058 11.0469C33.7087 10.9341 34.6833 10.2802 35.206 9.30244L37.0597 5.83551Z" stroke="#CBD7EB" stroke-width="4"/>
</svg>
