<svg width="80" height="80" viewBox="0 0 80 80" fill="none" xmlns="http://www.w3.org/2000/svg">
<path d="M13.6333 26.9334C13.4667 27.9334 13.3333 28.9334 13.3333 30C13.3333 28.9667 13.4667 27.9334 13.6333 26.9334ZM13.3333 50C13.3333 51.0667 13.4667 52.0667 13.6333 53.0667C13.4667 52.0667 13.3333 51.0334 13.3333 50ZM26.9667 66.3667C27.9333 66.5334 28.9667 66.6667 30 66.6667C28.9667 66.6667 27.9667 66.5334 26.9667 66.3667ZM26.9667 13.6334C27.9667 13.4667 28.9667 13.3334 30 13.3334C28.9667 13.3334 27.9333 13.4667 26.9667 13.6334ZM53.0667 13.6334C52.0667 13.4667 51.0667 13.3334 50 13.3334C51.0333 13.3334 52.0667 13.4667 53.0667 13.6334ZM66.3667 26.9334C66.5333 27.9334 66.6667 28.9667 66.6667 30C66.6667 28.9334 66.5333 27.9334 66.3667 26.9334Z" fill="#382B10"/>
<path d="M73.3333 27.6666C73.3333 29.0666 72.2333 30.1666 70.8333 30.1666H66.6667V37.9285C66.6667 38.3146 66.2477 38.555 65.9143 38.3601L64.5 37.5333C63.0667 36.7 61.4 36.4333 59.8 36.8666C59.291 36.9888 58.8068 37.1732 58.3551 37.4045C57.9951 37.5889 57.5333 37.3441 57.5333 36.9396V32.4666C57.5333 26.9666 53.0333 22.4666 47.5333 22.4666H32.4667C26.9667 22.4666 22.4667 26.9666 22.4667 32.4666V47.5333C22.4667 53.0333 26.9667 57.5333 32.4667 57.5333H34.1667C34.4428 57.5333 34.6667 57.7572 34.6667 58.0333V58.2333C34.6667 61.5978 37.2206 64.4009 40.5001 64.8401C40.8894 64.8923 41.1428 65.3409 40.993 65.7039C40.9117 65.901 40.8395 66.1021 40.7753 66.3025C40.7068 66.5164 40.5112 66.6666 40.2866 66.6666H30.2V70.8333C30.2 72.2 29.0667 73.3333 27.7 73.3333C26.3 73.3333 25.2 72.2 25.2 70.8333V65.9333C19.8667 64.3 15.7 60.1333 14.1 54.8333H9.16667C7.80001 54.8333 6.66667 53.7 6.66667 52.3333C6.66667 50.9333 7.80001 49.8333 9.16667 49.8333H13.3333V42.5H9.16667C7.80001 42.5 6.66667 41.3666 6.66667 40C6.66667 38.6 7.80001 37.5 9.16667 37.5H13.3333V30.1666H9.16667C7.80001 30.1666 6.66667 29.0666 6.66667 27.6666C6.66667 26.3 7.80001 25.1666 9.16667 25.1666H14.1C15.7 19.8666 19.8667 15.7 25.2 14.0666V9.16663C25.2 7.79996 26.3 6.66663 27.7 6.66663C29.0667 6.66663 30.2 7.79996 30.2 9.16663V13.3333H37.5V9.16663C37.5 7.79996 38.6333 6.66663 40 6.66663C41.3667 6.66663 42.5 7.79996 42.5 9.16663V13.3333H49.8333V9.16663C49.8333 7.79996 50.9667 6.66663 52.3333 6.66663C53.7 6.66663 54.8333 7.79996 54.8333 9.16663V14.1C60.1333 15.7 64.3 19.8666 65.9 25.1666H70.8333C72.2333 25.1666 73.3333 26.3 73.3333 27.6666Z" fill="#382B10"/>
<path d="M69.9667 51.7666C67.7 51.7666 66.4 50.6333 66.4 48.9666C66.4 48.3 66.6 47.5333 67.0667 46.7333C68 45.1333 67.4333 43.0666 65.8333 42.1666L62.8 40.4C61.4 39.5666 59.6 40.0666 58.7667 41.4666L58.5667 41.8C56.9667 44.5666 54.3667 44.5666 52.7667 41.8L52.5667 41.4666C51.7667 40.0666 49.9333 39.5666 48.5667 40.4L45.5 42.1666C44.4333 42.7666 43.8 43.9 43.8 45.0666C43.8 45.6333 43.9667 46.2 44.2667 46.7333C44.7333 47.5333 44.9667 48.3 44.9667 48.9666C44.9667 50.6333 43.6333 51.7666 41.3667 51.7666C39.5333 51.7666 38 53.2666 38 55.1V58.2333C38 60.0666 39.5333 61.5666 41.3667 61.5666C43.6333 61.5666 44.9667 62.7 44.9667 64.3666C44.9667 65.0333 44.7333 65.8 44.2667 66.6C43.3333 68.2 43.9 70.2666 45.5 71.1666L48.5667 72.9333C49.9333 73.7666 51.7667 73.2666 52.5667 71.8666L52.7667 71.5333C54.3667 68.7666 56.9667 68.7666 58.5667 71.5333L58.7667 71.8666C59.6 73.2666 61.4 73.7666 62.8 72.9333L65.8333 71.1666C66.9 70.5666 67.5333 69.4333 67.5333 68.2666C67.5333 67.7 67.3667 67.1333 67.0667 66.6C66.6 65.8 66.4 65.0333 66.4 64.3666C66.4 62.7 67.7 61.5666 69.9667 61.5666C71.8333 61.5666 73.3333 60.0666 73.3333 58.2333V55.1C73.3333 53.2666 71.8333 51.7666 69.9667 51.7666ZM55.6667 62.4C52.5 62.4 49.9333 59.8333 49.9333 56.6666C49.9333 53.5 52.5 50.9333 55.6667 50.9333C58.8333 50.9333 61.4 53.5 61.4 56.6666C61.4 59.8333 58.8333 62.4 55.6667 62.4Z" fill="#382B10"/>
<path d="M54.1667 33.4V37.0982C54.1667 37.5381 53.619 37.7835 53.2453 37.5514C52.7389 37.2368 52.1879 37.0086 51.6 36.8667C49.9333 36.4334 48.2667 36.6667 46.9 37.5L43.8667 39.2667C41.7667 40.4334 40.4667 42.6667 40.4667 45.0667C40.4667 45.9278 40.6206 46.8081 40.9723 47.6492C41.1219 48.0068 40.8748 48.44 40.4905 48.4905C37.6689 48.861 35.3908 50.9952 34.8092 53.7402C34.7577 53.9833 34.5489 54.1667 34.3003 54.1667H33.4C29.2 54.1667 25.8333 50.8 25.8333 46.6V33.4C25.8333 29.2 29.2 25.8334 33.4 25.8334H46.6C50.8 25.8334 54.1667 29.2 54.1667 33.4Z" fill="#382B10"/>
</svg>
