<svg width="73" height="91" viewBox="0 0 73 91" fill="none" xmlns="http://www.w3.org/2000/svg">
<path d="M24.3125 38.5833L32.4375 47.8056L50.7188 27.0556M69 87V26.1333C69 18.3859 69 14.5122 67.6716 11.5531C66.5032 8.95022 64.6387 6.83399 62.3455 5.50774C59.7385 4 56.3256 4 49.5 4H23.5C16.6744 4 13.2615 4 10.6545 5.50774C8.36127 6.83399 6.49681 8.95022 5.32836 11.5531C4 14.5122 4 18.3859 4 26.1333V87L15.1719 77.7778L25.3281 87L36.5 77.7778L47.6719 87L57.8281 77.7778L69 87Z" stroke="#382B10" stroke-opacity="0.7" stroke-width="8" stroke-linecap="round" stroke-linejoin="round"/>
</svg>
