<svg width="76" height="93" viewBox="0 0 76 93" fill="none" xmlns="http://www.w3.org/2000/svg">
<path d="M25.25 44.504L33.75 53.0926L52.875 33.7682M72 46.6511C72 67.7295 49.2457 83.06 40.9665 87.9404C40.0255 88.4951 39.5551 88.7724 38.8911 88.9163C38.3759 89.0279 37.6241 89.0279 37.1089 88.9163C36.4449 88.7724 35.9745 88.4951 35.0335 87.9404C26.7543 83.06 4 67.7295 4 46.6511V26.114C4 22.6806 4 20.964 4.55573 19.4883C5.04667 18.1847 5.84443 17.0215 6.88005 16.0994C8.05236 15.0554 9.64314 14.4527 12.8247 13.2472L35.6124 4.61269C36.4959 4.2779 36.9377 4.1105 37.3922 4.04414C37.7953 3.98529 38.2047 3.98529 38.6078 4.04414C39.0623 4.1105 39.5041 4.2779 40.3876 4.61268L63.1753 13.2472C66.3569 14.4527 67.9476 15.0554 69.1199 16.0994C70.1556 17.0215 70.9533 18.1847 71.4443 19.4883C72 20.964 72 22.6806 72 26.114V46.6511Z" stroke="#382B10" stroke-opacity="0.7" stroke-width="8" stroke-linecap="round" stroke-linejoin="round"/>
</svg>
