<svg width="77" height="77" viewBox="0 0 77 77" fill="none" xmlns="http://www.w3.org/2000/svg">
<g clip-path="url(#clip0_146_196)">
<path d="M60.1562 45.7188L48.125 57.75L28.875 52.9375L12.0312 40.9062" stroke="#E2E2E2" stroke-width="8" stroke-linecap="round" stroke-linejoin="round"/>
<path d="M21.8608 21.2442L38.5 16.8438L55.1392 21.2442" stroke="#E2E2E2" stroke-width="8" stroke-linecap="round" stroke-linejoin="round"/>
<path d="M10.3379 18.1731L2.66192 33.531C2.37665 34.1014 2.3295 34.7618 2.53085 35.3669C2.73219 35.9721 3.16555 36.4726 3.73571 36.7584L12.0313 40.9062L21.8608 21.2441L13.5682 17.0993C13.2856 16.9576 12.9779 16.873 12.6626 16.8502C12.3473 16.8275 12.0305 16.8671 11.7305 16.9668C11.4305 17.0666 11.1531 17.2244 10.9142 17.4314C10.6752 17.6384 10.4794 17.8904 10.3379 18.1731Z" stroke="#E2E2E2" stroke-width="8" stroke-linecap="round" stroke-linejoin="round"/>
<path d="M64.9687 40.9062L73.2643 36.7584C73.8344 36.4726 74.2678 35.9721 74.4692 35.3669C74.6705 34.7618 74.6234 34.1014 74.3381 33.531L66.6621 18.1731C66.5206 17.8904 66.3248 17.6384 66.0858 17.4314C65.8469 17.2244 65.5695 17.0666 65.2695 16.9668C64.9695 16.8671 64.6527 16.8275 64.3374 16.8502C64.0221 16.873 63.7144 16.9576 63.4318 17.0993L55.1392 21.2441L64.9687 40.9062Z" stroke="#E2E2E2" stroke-width="8" stroke-linecap="round" stroke-linejoin="round"/>
<path d="M55.3438 21.6562H43.3125L29.5788 34.9779C29.3235 35.233 29.1289 35.5424 29.0094 35.883C28.8898 36.2236 28.8485 36.5867 28.8883 36.9455C28.9282 37.3042 29.0483 37.6494 29.2397 37.9555C29.431 38.2616 29.6888 38.5206 29.9939 38.7136C35.2606 42.0793 42.4102 41.8477 48.125 36.0938L60.1563 45.7188L64.9688 40.9062" stroke="#E2E2E2" stroke-width="8" stroke-linecap="round" stroke-linejoin="round"/>
<path d="M37.3149 64.9688L24.7663 61.8316L16.8438 56.1709" stroke="#E2E2E2" stroke-width="8" stroke-linecap="round" stroke-linejoin="round"/>
</g>
<defs>
<clipPath id="clip0_146_196">
<rect width="77" height="77" fill="white"/>
</clipPath>
</defs>
</svg>
