<svg width="113" height="113" viewBox="0 0 113 113" fill="none" xmlns="http://www.w3.org/2000/svg">
<g clip-path="url(#clip0_249_38)">
<path d="M28.25 33.5469C28.25 27.4593 30.6683 21.6211 34.9728 17.3166C39.2774 13.012 45.1156 10.5938 51.2031 10.5938C57.2907 10.5938 63.1289 13.012 67.4334 17.3166C71.738 21.6211 74.1562 27.4593 74.1562 33.5469" stroke="#382B10" stroke-width="4" stroke-linecap="round" stroke-linejoin="round"/>
<path d="M31.7813 98.875L18.8392 76.8047C17.687 74.7781 17.3831 72.3781 17.9939 70.1283C18.6047 67.8785 20.0806 65.9616 22.0995 64.796C24.1184 63.6304 26.5164 63.3106 28.7701 63.9065C31.0239 64.5023 32.9505 65.9655 34.1295 67.9766L42.375 81.2188V33.5469C42.375 31.2055 43.3051 28.96 44.9607 27.3044C46.6163 25.6489 48.8618 24.7188 51.2031 24.7188C53.5445 24.7188 55.79 25.6489 57.4456 27.3044C59.1011 28.96 60.0313 31.2055 60.0313 33.5469V58.2656C60.0313 55.9243 60.9614 53.6788 62.617 52.0232C64.2725 50.3676 66.518 49.4375 68.8594 49.4375C71.2007 49.4375 73.4462 50.3676 75.1018 52.0232C76.7574 53.6788 77.6875 55.9243 77.6875 58.2656V65.3281C77.6875 62.9868 78.6176 60.7413 80.2732 59.0857C81.9288 57.4301 84.1743 56.5 86.5156 56.5C88.857 56.5 91.1025 57.4301 92.7581 59.0857C94.4136 60.7413 95.3438 62.9868 95.3438 65.3281V81.2188C95.3438 91.8125 91.8125 98.875 91.8125 98.875" stroke="#382B10" stroke-width="4" stroke-linecap="round" stroke-linejoin="round"/>
</g>
<defs>
<clipPath id="clip0_249_38">
<rect width="113" height="113" fill="white"/>
</clipPath>
</defs>
</svg>
